<svg width="652" height="72" viewBox="0 0 652 72" fill="none" xmlns="http://www.w3.org/2000/svg">
<path d="M409.836 25.0848C408.627 24.1982 407.257 23.368 405.733 22.6024C403.654 21.5385 401.413 20.6517 399.02 19.9586C396.715 19.2091 394.345 18.6531 391.911 18.2743C389.469 17.8391 387.14 17.6215 384.94 17.6215C381.281 17.6215 378.242 18.2016 375.824 19.3058C372.923 20.5711 371.521 22.6587 371.521 25.4956C371.521 27.4379 372.375 29.0177 374.148 30.1943C375.535 31.1212 377.372 31.9269 379.685 32.5878C379.693 32.5878 379.709 32.5961 379.725 32.5961C381.877 33.1522 384.303 33.6758 387.011 34.1674C387.019 34.1674 387.035 34.1674 387.043 34.1674C389.671 34.5865 392.355 35.1265 395.095 35.7793C395.111 35.7874 395.119 35.7876 395.135 35.7876C397.915 36.384 400.607 37.1172 403.21 38.0118C405.717 38.8661 407.974 40.0027 409.965 41.4292C409.973 41.4292 409.981 41.4373 409.989 41.4454C411.907 42.7591 413.446 44.4033 414.599 46.3779C415.735 48.3283 416.283 50.7299 416.283 53.5508C416.283 56.702 415.542 59.4018 414.018 61.6343C414.018 61.6423 414.011 61.6504 414.011 61.6504C412.511 63.9232 410.456 65.7768 407.853 67.2114C407.853 67.2194 407.845 67.2196 407.845 67.2196C405.193 68.7187 402.114 69.8068 398.609 70.4918C398.609 70.4918 398.609 70.4918 398.601 70.4918C395.071 71.2011 391.396 71.5555 387.567 71.5555C384.44 71.5555 381.281 71.3138 378.089 70.8464C378.081 70.8383 378.073 70.8381 378.065 70.8381C374.874 70.4271 371.803 69.8069 368.845 68.9767C365.911 68.1547 363.171 67.1874 360.649 66.0752C358.65 65.1403 356.868 64.1248 355.289 63.0207L361.116 53.1879C362.413 54.1873 363.905 55.1224 365.589 55.9847C365.597 55.9928 365.605 55.9928 365.621 56.0009C367.926 57.1211 370.4 58.0964 373.02 58.9024C373.036 58.9104 373.052 58.9185 373.06 58.9185C375.728 59.66 378.42 60.2483 381.144 60.6835C383.956 61.1187 386.616 61.3363 389.115 61.3363C390.904 61.3363 392.564 61.2074 394.103 60.9495C395.675 60.6916 397.053 60.3287 398.23 59.8693C398.254 59.8612 398.278 59.8451 398.302 59.837C399.648 59.2406 400.68 58.4751 401.429 57.5805C401.446 57.5644 401.454 57.5482 401.47 57.5321C402.3 56.4521 402.711 55.243 402.711 53.9132C402.711 51.9306 401.865 50.3029 400.132 49.0618C398.738 48.0704 396.884 47.2239 394.555 46.555C392.451 45.9344 390.041 45.3784 387.325 44.8868C384.682 44.3468 381.95 43.7747 379.121 43.1702C376.397 42.5255 373.737 41.7515 371.134 40.8649C368.619 39.9542 366.371 38.818 364.372 37.4479C362.486 36.0617 360.971 34.3851 359.818 32.4024C358.674 30.444 358.134 28.0506 358.134 25.2217C358.134 22.0543 358.787 19.3705 360.157 17.1783C360.157 17.1783 360.165 17.1703 360.165 17.1622C361.543 14.9056 363.381 13.0922 365.694 11.722C365.702 11.714 365.71 11.714 365.718 11.7059C368.111 10.223 370.884 9.14278 374.019 8.45772C377.299 7.75654 380.725 7.41014 384.303 7.41014C387.253 7.41014 390.243 7.61164 393.249 8.03074C393.257 8.03074 393.257 8.03074 393.257 8.03074C396.32 8.44177 399.27 9.0622 402.098 9.88426C402.106 9.88426 402.123 9.89253 402.131 9.89253C404.951 10.6582 407.635 11.6011 410.158 12.7134C412.141 13.5918 413.938 14.5591 415.55 15.6148L409.836 25.0848ZM213.152 69.46H201.071V9.13498H235.855C240.989 9.1914 245.502 10.0695 249.371 11.8023C253.199 13.519 256.383 15.8 258.898 18.6612C258.906 18.6692 258.914 18.6771 258.914 18.6852C261.493 21.4899 263.411 24.6977 264.668 28.3003C264.668 28.3083 264.676 28.3162 264.676 28.3243C265.998 31.8947 266.667 35.5538 266.667 39.3014C266.667 43.0491 265.998 46.7323 264.676 50.3671C264.676 50.3671 264.668 50.3752 264.668 50.3832C263.411 53.9375 261.484 57.1451 258.905 60.0062C258.905 60.0062 258.905 60.0064 258.905 60.0145C256.391 62.8192 253.207 65.076 249.371 66.7926C245.502 68.5254 240.989 69.4036 235.855 69.46H225.313V59.8854H235.412C238.539 59.8854 241.263 59.2729 243.592 58.072C245.922 56.8712 247.848 55.3075 249.379 53.3733C250.967 51.3987 252.119 49.1906 252.845 46.7486C253.61 44.3066 253.997 41.816 253.997 39.3014C253.997 36.7707 253.611 34.2805 252.837 31.8224C252.111 29.332 250.951 27.1237 249.371 25.2056C247.848 23.2229 245.922 21.6272 243.592 20.4344C241.263 19.2335 238.539 18.621 235.412 18.621H214.796C213.909 18.621 213.184 19.3383 213.184 20.2329V32.1931H213.152V69.46ZM303.289 8.22396H316.781L345.932 69.46H333.246L311.437 24.0691C311.171 23.5129 310.607 23.1584 309.986 23.1584C309.366 23.1584 308.802 23.5129 308.536 24.0691L286.727 69.46H274.049L303.289 8.22396ZM608.833 8.22396H622.324L651.475 69.46H638.79L616.981 24.0691C616.715 23.5129 616.151 23.1584 615.53 23.1584C614.91 23.1584 614.345 23.5129 614.079 24.0691L592.27 69.46H579.593L608.833 8.22396ZM145.815 8.22396H159.306L188.457 69.46H175.78L153.971 24.0691C153.705 23.5129 153.141 23.1584 152.52 23.1584C151.9 23.1584 151.335 23.5129 151.061 24.0691L129.261 69.46H116.575L145.815 8.22396ZM517.406 47.0949C517.398 47.1271 517.398 47.1597 517.398 47.2V69.46H505.276V9.13498H541.979C545.243 9.13498 548.08 9.65057 550.498 10.7225C550.514 10.7225 550.522 10.7307 550.53 10.7307C552.9 11.7221 554.858 13.068 556.405 14.7766C556.405 14.7847 556.413 14.7847 556.422 14.7928C558.025 16.5094 559.21 18.4677 559.984 20.676C559.984 20.6841 559.992 20.7001 560 20.7162C560.838 22.8922 561.257 25.1169 561.257 27.4058C561.257 29.1869 560.999 30.9439 560.5 32.6767C560 34.4015 559.243 36.0453 558.243 37.6088C558.235 37.6088 558.235 37.6169 558.235 37.625C557.292 39.116 556.075 40.4621 554.584 41.6791C553.15 42.8316 551.465 43.7423 549.539 44.4031C549.047 44.5724 548.668 44.9672 548.515 45.4669C548.37 45.9665 548.475 46.5068 548.789 46.9178L566.375 69.46H551.264L534.951 46.2728C534.645 45.8376 534.153 45.5881 533.629 45.5881H529.769V36.0938H538.264C541.681 36.0938 544.228 35.1588 545.936 33.4422C545.944 33.4422 545.952 33.4341 545.96 33.426C547.741 31.5723 548.588 29.5496 548.588 27.4058C548.588 25.2459 547.733 23.2551 545.944 21.4659C544.228 19.6847 541.689 18.7096 538.264 18.7096H519.009C518.123 18.7096 517.398 19.4349 517.398 20.3215V34.4819C517.398 34.5222 517.398 34.5543 517.406 34.5865V47.0949ZM492.8 9.13498V18.621H466.631C465.736 18.621 465.019 19.3383 465.019 20.2329V69.46H452.898V20.144C452.898 19.2494 452.172 18.5321 451.286 18.5321H425.108V9.13498H492.8Z" fill="#1B1B1B"/>
<path fill-rule="evenodd" clip-rule="evenodd" d="M2.47171 58.7884C5.2355 55.774 28.1252 22.7421 48.9445 22.6971C69.7552 22.6521 95.2794 58.4914 95.2794 58.4914C95.2794 58.4914 96.8822 56.2871 96.9428 55.3513C97.0035 54.4065 90.4274 42.6277 81.391 30.3723C70.6044 15.7504 56.5341 0.354854 48.9445 0.444835C36.1826 0.597803 4.66363 43.6718 0.903499 55.5762C0.842851 55.7652 1.12003 56.4131 1.48391 57.1869C1.88245 58.0418 2.42839 58.8424 2.47171 58.7884Z" fill="#0044FF"/>
<path d="M48.538 71.2235C55.6693 71.0771 61.3358 65.3735 61.1943 58.4844C61.0529 51.5954 55.1571 46.1295 48.0258 46.2759C40.8944 46.4223 35.2279 52.1256 35.3694 59.0146C35.5108 65.9037 41.4066 71.3699 48.538 71.2235Z" fill="#0044FF"/>
</svg>
