<svg width="81" height="81" viewBox="0 0 81 81" fill="none" xmlns="http://www.w3.org/2000/svg">
<rect x="35.3887" y="4.14453" width="45" height="45" fill="#F2F7FF"/>
<path d="M35.3888 42.4861L29.0811 38.8711V46.3348L35.3888 50.1834V42.4861Z" fill="#FFBF00"/>
<path d="M35.3888 67.8494L29.0811 64.2344V71.698L35.3888 75.5467V67.8494Z" fill="#FFBF00"/>
<path d="M9.21791 58.283L2.91016 54.668V62.1316L9.21791 65.9803V58.283Z" fill="#FFBF00"/>
<path d="M9.21791 27.2674L2.91016 23.6523V31.116L9.21791 34.9646V27.2674Z" fill="#FFBF00"/>
<path d="M35.3888 17.8142L29.0811 14.1992V21.6629L35.3888 25.5115V17.8142Z" fill="#FFBF00"/>
<path d="M61.7905 26.9314L55.4053 23.3164V30.7801L61.7905 34.6287V26.9314Z" fill="#FFBF00"/>
<path d="M61.7905 58.283L55.4053 54.668V62.1316L61.7905 65.9803V58.283Z" fill="#FFBF00"/>
<g clip-path="url(#clip0_401_2508)">
<path d="M37.4412 4.54688C37.5413 4.54688 37.6414 4.54688 37.7414 4.54688C40.4837 6.10688 43.226 7.70688 46.0083 9.24688C46.829 9.70687 47.1693 10.2869 47.1693 11.2269C47.1293 13.7669 47.1693 16.3269 47.1493 18.8669C47.1493 19.3069 47.2694 19.5469 47.6697 19.7469C49.7715 20.7869 51.8732 21.8469 53.975 22.8869C54.0951 22.9469 54.2552 22.9669 54.4754 23.0269C54.4754 22.1869 54.4954 21.4269 54.4754 20.6469C54.4353 19.8669 54.7556 19.3469 55.4562 18.9669C57.9983 17.5469 60.5404 16.1069 63.0625 14.6269C63.7431 14.2269 64.3236 14.2269 65.0042 14.6269C67.4462 16.0469 69.9082 17.4069 72.3503 18.8469C72.8507 19.1269 73.211 19.6269 73.6514 20.0269C73.6514 23.3269 73.6514 26.6269 73.6514 29.9269C73.231 30.3269 72.8507 30.8069 72.3503 31.0869C70.1885 32.3669 67.9866 33.6069 65.7848 34.8469C65.3444 35.0869 65.1643 35.3869 65.1643 35.9069C65.1843 39.0269 65.1843 42.1469 65.1643 45.2669C65.1643 45.7869 65.3444 46.0669 65.7848 46.3269C67.9866 47.5469 70.1685 48.7869 72.3503 50.0869C72.8507 50.3869 73.211 50.8669 73.6514 51.2469C73.6514 54.5469 73.6514 57.8469 73.6514 61.1469C73.3111 61.4869 73.0108 61.9269 72.6105 62.1669C70.0684 63.6669 67.4862 65.0869 64.9441 66.5669C64.3036 66.9269 63.7631 66.9269 63.1226 66.5469C60.9007 65.2469 58.6389 64.0069 56.437 62.7069C55.8565 62.3669 55.4562 62.3869 54.8957 62.7469C53.0142 63.9669 51.1526 65.2469 49.171 66.3069C48.4103 66.7069 47.97 67.0469 47.4295 67.4469C47.2494 67.5869 47.0292 67.6669 47.0292 68.0469C47.0292 68.6469 47.0892 69.4069 47.1693 69.9269C47.3494 70.8469 46.869 71.4469 46.0484 71.9069C43.2861 73.4469 40.5438 75.0269 37.7815 76.6069C37.6814 76.6069 37.5813 76.6069 37.4812 76.6069C35.1593 75.2869 32.8374 73.9869 30.5354 72.6269C27.7731 71.0069 28.1134 71.7469 28.0934 68.4269C28.0934 68.4069 28.0934 68.3669 28.0934 68.3469C28.1735 67.8069 27.9533 67.4869 27.4929 67.2069C25.0709 65.7269 22.6489 64.2069 20.2469 62.6869C19.7865 62.3869 19.4262 62.3869 18.9658 62.6669C16.7039 63.9869 14.402 65.2669 12.1401 66.5869C11.5396 66.9269 10.9992 66.9869 10.3987 66.6269C7.79648 65.1269 5.19431 63.6269 2.59215 62.1669C1.95161 61.8069 1.69139 61.3069 1.69139 60.5869C1.71141 57.6869 1.71141 54.7869 1.69139 51.8869C1.69139 51.1269 1.97163 50.6269 2.63218 50.2469C4.91408 48.9669 7.17597 47.6469 9.47788 46.3669C9.95828 46.1069 10.1184 45.7869 10.1184 45.2469C10.0984 42.1469 10.0984 39.0469 10.1184 35.9469C10.1184 35.4269 9.95828 35.1469 9.4979 34.8869C7.19598 33.5869 4.89406 32.2669 2.59215 30.9669C1.89156 30.5469 1.61133 30.0869 1.61133 29.3869C1.61133 26.4469 1.61133 23.4869 1.61133 20.5469C1.61133 19.8469 1.87155 19.3669 2.49206 19.0269C5.09423 17.5469 7.71642 16.0669 10.2986 14.5669C10.9191 14.2069 11.4395 14.2269 12.04 14.5669C14.6022 16.0269 17.1643 17.5069 19.7264 18.9469C20.447 19.3469 20.7473 19.9069 20.7273 20.7069C20.6872 21.4669 20.7273 22.2269 20.7273 23.0069C20.9474 22.9669 21.0075 22.9669 21.0876 22.9269C23.2894 21.8469 25.4912 20.7669 27.653 19.6269C27.8732 19.5069 28.0333 19.0669 28.0333 18.7869C28.0534 16.2469 28.0734 13.6869 28.0333 11.1469C28.0133 10.2669 28.3536 9.72688 29.1142 9.28688C31.8966 7.74688 34.6589 6.12688 37.4412 4.54688ZM47.1493 64.8469C47.4695 64.6669 47.6497 64.6069 47.8298 64.5069C49.8515 63.2469 51.8532 61.9669 53.8749 60.7469C54.3553 60.4669 54.4954 60.1269 54.4954 59.6069C54.4754 57.1069 54.5154 54.6069 54.4754 52.1069C54.4554 51.1069 54.8157 50.5069 55.6964 50.0269C57.9183 48.8269 60.0801 47.5269 62.2819 46.3069C62.7223 46.0669 62.9024 45.7869 62.9024 45.2469C62.8824 42.1269 62.8824 39.0069 62.9024 35.8669C62.9024 35.3269 62.7022 35.0669 62.2619 34.8269C59.96 33.5269 57.658 32.2069 55.3561 30.9069C54.7356 30.5669 54.4554 30.0869 54.4754 29.3869C54.4954 28.3669 54.4554 27.3269 54.4954 26.3069C54.5154 25.8069 54.3353 25.5469 53.8949 25.3269C51.4529 24.1269 49.0308 22.8869 46.5688 21.7069C46.2886 21.5669 45.8282 21.5869 45.568 21.7269C43.4462 22.8869 41.3444 24.1069 39.2627 25.3269C39.0225 25.4669 38.8023 25.8469 38.7823 26.1269C38.7223 27.2669 38.7823 28.4269 38.7423 29.5669C38.7223 30.1069 38.9024 30.4269 39.3828 30.6869C41.6447 31.9469 43.8866 33.2669 46.1685 34.5269C46.8891 34.9269 47.1893 35.4669 47.1693 36.2869C47.1493 39.1069 47.1493 41.9269 47.1693 44.7669C47.1693 45.6069 46.8891 46.1669 46.1284 46.5869C43.8465 47.8469 41.6047 49.1669 39.3428 50.4269C38.9024 50.6869 38.7223 50.9669 38.7223 51.4869C38.7623 52.6069 38.7623 53.7269 38.7223 54.8669C38.7022 55.3669 38.8824 55.6269 39.3027 55.8669C41.5846 57.1469 43.8465 58.4669 46.1484 59.7469C46.869 60.1469 47.1693 60.6869 47.1493 61.5069C47.1092 62.5669 47.1493 63.6469 47.1493 64.8469ZM28.0333 64.8869C28.0333 63.6469 28.0734 62.5869 28.0133 61.5469C27.9733 60.6669 28.3336 60.1069 29.0942 59.6869C31.3561 58.4469 33.5579 57.1469 35.8198 55.8869C36.2602 55.6469 36.4604 55.3669 36.4404 54.8269C36.4003 53.6869 36.4003 52.5269 36.4404 51.3869C36.4604 50.9269 36.2802 50.6669 35.8799 50.4469C33.578 49.1469 31.276 47.8069 28.9741 46.5269C28.3136 46.1469 28.0133 45.6469 28.0133 44.9069C28.0333 42.0069 28.0333 39.1069 28.0133 36.2069C28.0133 35.4469 28.2936 34.9469 28.9741 34.5869C31.2961 33.3069 33.578 31.9669 35.8799 30.6669C36.2802 30.4469 36.4604 30.2069 36.4404 29.7269C36.4003 28.5469 36.4203 27.3869 36.4404 26.2069C36.4404 25.7869 36.3403 25.5269 35.9399 25.3069C33.8182 24.1269 31.7364 22.9069 29.6147 21.7269C29.3544 21.5869 28.9141 21.5669 28.6739 21.6869C26.1718 22.8869 23.7097 24.1469 21.2277 25.3869C20.8273 25.5869 20.6872 25.8269 20.7072 26.2669C20.7273 27.1869 20.6672 28.1269 20.7273 29.0469C20.7873 30.0469 20.387 30.6469 19.5062 31.1269C17.2844 32.3269 15.1226 33.6269 12.9208 34.8469C12.4804 35.0869 12.3002 35.3869 12.3002 35.9069C12.3203 39.0069 12.3203 42.1069 12.3002 45.2069C12.3002 45.7469 12.4604 46.0669 12.9408 46.3269C15.2027 47.5869 17.4445 48.9069 19.7264 50.1669C20.447 50.5669 20.7473 51.1069 20.7273 51.9269C20.7072 54.5269 20.7273 57.1269 20.7072 59.7269C20.7072 60.2069 20.8674 60.5069 21.2677 60.7469C23.1893 61.9269 25.0909 63.1269 26.9925 64.3069C27.2927 64.4469 27.593 64.6269 28.0333 64.8869ZM31.4562 60.9669C33.5379 62.1669 35.4395 63.2469 37.3611 64.3069C37.5213 64.3869 37.8415 64.3069 38.0417 64.2069C39.7831 63.2269 41.5046 62.2269 43.246 61.2469C43.3661 61.1869 43.4462 61.0669 43.5663 60.9669C43.4862 60.8669 43.4462 60.7869 43.3861 60.7669C41.5646 59.7269 39.7631 58.6669 37.9216 57.6469C37.7214 57.5469 37.3411 57.6069 37.1209 57.7269C35.8198 58.4269 34.5588 59.1669 33.2777 59.9069C32.7172 60.2069 32.1768 60.5269 31.4562 60.9669ZM43.6063 10.6269C43.4662 10.4669 43.4462 10.3869 43.3861 10.3669C41.5646 9.32688 39.7631 8.26688 37.9216 7.24688C37.7214 7.14688 37.3411 7.20687 37.1209 7.32687C35.4195 8.26688 33.7381 9.24687 32.0567 10.2069C31.8966 10.2869 31.7765 10.4269 31.5563 10.6069C33.2577 11.5869 34.8991 12.4469 36.4404 13.4269C37.3011 13.9669 37.9416 13.9669 38.7823 13.4269C40.3236 12.4469 41.9449 11.5669 43.6063 10.6269ZM57.9583 51.2869C58.1585 51.4469 58.2185 51.5269 58.2986 51.5869C60.0801 52.6069 61.8415 53.6469 63.643 54.6069C63.8832 54.7269 64.3236 54.6669 64.5838 54.5269C66.1651 53.6669 67.7064 52.7669 69.2677 51.8669C69.5079 51.7269 69.7681 51.5669 70.1484 51.3469C69.8082 51.1469 69.628 51.0069 69.4078 50.8869C68.2469 50.2069 66.9858 49.6469 65.9249 48.8469C64.5838 47.8469 63.4629 47.9069 62.1418 48.8669C60.8407 49.7869 59.4195 50.4669 57.9583 51.2869ZM5.01416 51.3469C7.11592 52.5469 9.0175 53.6269 10.9391 54.6869C11.1193 54.7869 11.4595 54.6869 11.6797 54.5669C13.3811 53.6269 15.0625 52.6469 16.7439 51.6869C16.8841 51.6069 17.0042 51.4869 17.1443 51.3669C17.0642 51.2669 17.0242 51.1869 16.9841 51.1669C15.1626 50.1269 13.3611 49.0669 11.5196 48.0469C11.3194 47.9269 10.9391 47.9869 10.7189 48.1069C9.53793 48.7469 8.37697 49.4269 7.19598 50.1069C6.53543 50.4869 5.87488 50.8669 5.01416 51.3469ZM31.4562 35.7469C33.5379 36.9269 35.4195 38.0269 37.3011 39.0669C37.5012 39.1669 37.8816 39.0869 38.1017 38.9669C39.7831 38.0269 41.4445 37.0669 43.1059 36.1069C43.266 36.0069 43.4062 35.8869 43.5663 35.7669C43.4662 35.6669 43.4262 35.5869 43.3861 35.5469C41.5646 34.5069 39.7631 33.4469 37.9216 32.4469C37.7014 32.3269 37.3011 32.4269 37.0609 32.5669C35.6797 33.3269 34.3186 34.1069 32.9575 34.8869C32.4971 35.1269 32.0567 35.3869 31.4562 35.7469ZM5.03418 20.1469C7.01583 21.2869 8.81733 22.3069 10.5988 23.3469C11.0192 23.6069 11.3394 23.5669 11.7598 23.3269C13.3811 22.3869 15.0025 21.4669 16.6238 20.5269C16.804 20.4269 16.9641 20.2869 17.1643 20.1469C17.0642 20.0269 17.0242 19.9469 16.9641 19.9269C15.1426 18.8869 13.3411 17.8269 11.4996 16.8069C11.2994 16.7069 10.9191 16.7669 10.6989 16.8869C9.29773 17.6469 7.91658 18.4469 6.53543 19.2469C6.07505 19.5269 5.63468 19.7869 5.03418 20.1469ZM70.0484 20.2269C69.9082 20.0669 69.8882 19.9869 69.8282 19.9469C68.0067 18.9069 66.2052 17.8469 64.3636 16.8269C64.1635 16.7069 63.7831 16.7669 63.563 16.9069C61.8415 17.8669 60.1401 18.8469 58.4187 19.8269C58.2785 19.9069 58.1785 20.0469 57.9983 20.2069C59.98 21.3269 61.8816 22.4269 63.7831 23.4869C63.9032 23.5469 64.1434 23.5469 64.2635 23.4869C66.1651 22.4269 68.0667 21.3469 70.0484 20.2269ZM38.7423 23.0269C40.824 21.8469 42.7056 20.7669 44.5671 19.6669C44.7473 19.5669 44.8474 19.2069 44.8474 18.9669C44.8674 17.0469 44.8674 15.1269 44.8474 13.1869C44.8474 13.0069 44.7873 12.8269 44.7473 12.5469C43.4662 13.2669 42.2652 13.9469 41.0842 14.6269C40.3036 15.0669 39.2627 15.3869 38.8624 16.0669C38.462 16.7469 38.7423 17.8069 38.7223 18.7069C38.7223 20.0869 38.7423 21.4469 38.7423 23.0269ZM44.8474 37.8469C44.6672 37.8669 44.5871 37.8669 44.5271 37.8869C42.7056 38.9269 40.864 39.9469 39.0625 41.0069C38.8624 41.1269 38.7423 41.4869 38.7423 41.7469C38.7223 43.3269 38.7223 44.8869 38.7223 46.4669C38.7223 46.9869 38.7223 47.4869 38.7223 48.0269C38.9024 48.0069 38.9825 48.0269 39.0425 47.9869C40.864 46.9469 42.7056 45.9269 44.5071 44.8669C44.7072 44.7469 44.8273 44.3669 44.8273 44.1269C44.8474 42.6069 44.8474 41.0869 44.8474 39.5469C44.8474 39.0069 44.8474 38.4469 44.8474 37.8469ZM18.4253 22.2069C18.2252 22.2669 18.1251 22.2669 18.045 22.3069C16.2435 23.3269 14.422 24.3469 12.6405 25.4069C12.4404 25.5269 12.3203 25.8869 12.3203 26.1469C12.2802 27.5669 12.3002 28.9869 12.3002 30.4269C12.3002 31.0869 12.3002 31.7469 12.3002 32.5069C12.5404 32.4269 12.6605 32.4069 12.7606 32.3469C14.5221 31.3469 16.2836 30.3669 18.025 29.3269C18.2452 29.2069 18.4053 28.8069 18.4053 28.5469C18.4454 27.1669 18.4253 25.8069 18.4253 24.4269C18.4253 23.7069 18.4253 22.9869 18.4253 22.2069ZM65.1643 32.6069C67.246 31.4269 69.1276 30.3669 70.9891 29.2469C71.1693 29.1469 71.2694 28.7869 71.2694 28.5469C71.2894 26.6069 71.2894 24.6469 71.2694 22.7069C71.2694 22.5469 71.2093 22.3869 71.1693 22.1469C69.7481 22.9469 68.467 23.8469 67.0459 24.4469C65.4846 25.1269 64.9241 26.0869 65.1243 27.7869C65.2844 29.3069 65.1643 30.8669 65.1643 32.6069ZM56.8574 22.2069C56.8173 22.3269 56.7573 22.3869 56.7573 22.4469C56.7573 24.5469 56.7373 26.6269 56.7573 28.7269C56.7573 28.9269 56.9775 29.2269 57.1776 29.3269C58.8791 30.3269 60.5805 31.2869 62.3019 32.2669C62.442 32.3469 62.6022 32.3669 62.8624 32.4669C62.8624 30.3069 62.8824 28.2069 62.8424 26.1269C62.8424 25.8269 62.5821 25.4269 62.3219 25.2669C60.7206 24.3069 59.0792 23.3869 57.4579 22.4669C57.2777 22.3869 57.0775 22.3069 56.8574 22.2069ZM36.4003 48.0869C36.4203 47.7869 36.4404 47.5669 36.4404 47.3669C36.4404 45.5269 36.4203 43.6669 36.4604 41.8269C36.4604 41.3269 36.3002 41.0669 35.8799 40.8269C34.2585 39.9269 32.6772 39.0069 31.0759 38.1069C30.8757 37.9869 30.6555 37.9069 30.3353 37.7669C30.3353 40.0869 30.3152 42.2469 30.3553 44.4069C30.3553 44.6069 30.6155 44.8669 30.8157 44.9869C32.477 45.9669 34.1384 46.9069 35.7998 47.8469C35.98 47.9469 36.1601 47.9869 36.4003 48.0869ZM3.91325 22.1069C3.91325 24.4669 3.89323 26.6469 3.93326 28.8069C3.93326 29.0269 4.23351 29.2869 4.4537 29.4269C6.03501 30.3669 7.65637 31.2669 9.2577 32.1869C9.45787 32.3069 9.67805 32.3869 9.89823 32.5069C9.95828 32.4069 9.99832 32.3669 9.99832 32.3269C9.99832 30.2069 10.0384 28.0869 9.99832 25.9669C9.99832 25.7469 9.71808 25.4669 9.4979 25.3269C8.61717 24.7869 7.6964 24.2669 6.77563 23.7669C5.8949 23.2069 4.97413 22.7069 3.91325 22.1069ZM4.01333 53.3469C3.95328 53.5469 3.91325 53.6269 3.91325 53.6869C3.91325 55.7669 3.89323 57.8269 3.91325 59.9069C3.91325 60.1269 4.15345 60.4469 4.37363 60.5669C6.03501 61.5469 7.6964 62.4869 9.3778 63.4469C9.53793 63.5469 9.71808 63.5869 9.99832 63.7069C9.99832 61.4269 9.99832 59.2269 9.9783 57.0269C9.9783 56.8869 9.83818 56.7069 9.71808 56.6269C7.85653 55.5469 5.97496 54.4669 4.01333 53.3469ZM18.4253 53.2869C16.3436 54.4669 14.442 55.5469 12.5605 56.6669C12.4003 56.7669 12.3203 57.1269 12.3203 57.3669C12.3002 58.7469 12.3002 60.1069 12.3002 61.4869C12.3002 62.2069 12.3002 62.9069 12.3002 63.6069C12.4604 63.6269 12.5204 63.6469 12.5404 63.6269C14.402 62.5669 16.2836 61.5269 18.1251 60.4469C18.2652 60.3669 18.3853 60.1269 18.3853 59.9669C18.4253 57.8269 18.4253 55.6469 18.4253 53.2869ZM56.7973 53.3669C56.7773 53.6869 56.7573 53.9069 56.7573 54.1069C56.7573 55.9469 56.7773 57.8069 56.7373 59.6469C56.7373 60.1469 56.9174 60.4069 57.3378 60.6469C58.9391 61.5269 60.5004 62.4469 62.1017 63.3469C62.3019 63.4669 62.5421 63.5469 62.8223 63.6869C62.8424 63.3669 62.8624 63.1469 62.8624 62.9469C62.8624 61.1069 62.8424 59.2469 62.8824 57.4069C62.8824 56.9069 62.7022 56.6469 62.2819 56.4069C60.6806 55.5269 59.1192 54.6069 57.5179 53.7069C57.3177 53.6069 57.0976 53.5069 56.7973 53.3669ZM71.2694 53.4269C71.0692 53.4669 70.9691 53.4669 70.8891 53.5269C69.0876 54.5469 67.2861 55.5469 65.5046 56.6069C65.3044 56.7269 65.1643 57.1269 65.1643 57.4069C65.1243 59.1669 65.1443 60.9469 65.1443 62.7269C65.1443 63.0269 65.1443 63.3469 65.1443 63.6469C65.3244 63.6469 65.3845 63.6669 65.4245 63.6469C67.266 62.6069 69.1276 61.5669 70.9491 60.5069C71.1293 60.4069 71.2494 60.0669 71.2694 59.8269C71.3094 58.8069 71.2894 57.7869 71.2894 56.7669C71.2694 55.6469 71.2694 54.5669 71.2694 53.4269ZM36.4003 22.9069C36.4203 22.5869 36.4404 22.3869 36.4604 22.1669C36.4604 20.3269 36.4404 18.4669 36.4804 16.6269C36.4804 16.1269 36.3002 15.8669 35.8799 15.6269C34.2785 14.7469 32.7172 13.8269 31.1159 12.9269C30.9157 12.8069 30.6956 12.7269 30.3953 12.5669C30.3753 12.8869 30.3353 13.1069 30.3353 13.3069C30.3353 15.1469 30.3553 17.0069 30.3152 18.8469C30.3152 19.3469 30.4954 19.6069 30.9157 19.8469C32.5171 20.7269 34.0784 21.6469 35.6797 22.5469C35.8799 22.6869 36.1001 22.7669 36.4003 22.9069ZM30.4554 62.9669C30.3953 63.1269 30.3353 63.1869 30.3353 63.2469C30.3353 65.3469 30.3152 67.4469 30.3353 69.5469C30.3353 69.7669 30.6155 70.0469 30.8357 70.1869C32.0967 70.9469 33.3778 71.6669 34.6589 72.3869C35.1993 72.6869 35.7398 72.9869 36.2802 73.3069C36.3403 73.1469 36.4003 73.0869 36.4003 73.0269C36.4003 70.9269 36.4203 68.8269 36.4003 66.7269C36.4003 66.5069 36.1201 66.2069 35.8999 66.0869C34.5988 65.3069 33.2577 64.5669 31.9366 63.8069C31.4762 63.5269 30.9758 63.2669 30.4554 62.9669ZM38.7423 73.3069C38.9625 73.2269 39.0625 73.2069 39.1426 73.1669C40.9241 72.1669 42.7056 71.1669 44.467 70.1269C44.6872 70.0069 44.8474 69.6069 44.8474 69.3469C44.8874 67.4269 44.8674 65.5069 44.8674 63.5869C44.8674 63.4069 44.8073 63.2269 44.7673 62.9469C42.7856 64.0669 40.9041 65.1469 39.0425 66.2269C38.9024 66.3069 38.7623 66.5269 38.7623 66.6869C38.7223 68.8669 38.7423 71.0269 38.7423 73.3069Z" fill="#0044FF"/>
</g>
<defs>
<clipPath id="clip0_401_2508">
<rect width="72" height="72" fill="white" transform="translate(1.61133 4.54688)"/>
</clipPath>
</defs>
</svg>
