<svg width="86" height="86" viewBox="0 0 86 86" fill="none" xmlns="http://www.w3.org/2000/svg">
<rect x="6.69629" y="6.64941" width="45" height="45" fill="#F2F7FF"/>
<circle cx="42.689" cy="83.6997" r="1.35989" fill="#FFBF00"/>
<circle cx="42.689" cy="78.1763" r="1.35989" fill="#FFBF00"/>
<circle cx="42.689" cy="72.6529" r="1.35989" fill="#FFBF00"/>
<circle cx="42.689" cy="67.1294" r="1.35989" fill="#FFBF00"/>
<circle cx="48.0308" cy="83.6997" r="1.35989" fill="#FFBF00"/>
<circle cx="48.0308" cy="78.1763" r="1.35989" fill="#FFBF00"/>
<circle cx="48.0308" cy="72.6529" r="1.35989" fill="#FFBF00"/>
<circle cx="48.0308" cy="67.1294" r="1.35989" fill="#FFBF00"/>
<circle cx="53.3726" cy="83.6997" r="1.35989" fill="#FFBF00"/>
<circle cx="53.3726" cy="78.1763" r="1.35989" fill="#FFBF00"/>
<circle cx="53.3726" cy="72.6529" r="1.35989" fill="#FFBF00"/>
<circle cx="53.3726" cy="67.1294" r="1.35989" fill="#FFBF00"/>
<circle cx="58.7144" cy="83.6997" r="1.35989" fill="#FFBF00"/>
<circle cx="58.7144" cy="78.1763" r="1.35989" fill="#FFBF00"/>
<circle cx="58.7144" cy="72.6529" r="1.35989" fill="#FFBF00"/>
<circle cx="58.7144" cy="67.1294" r="1.35989" fill="#FFBF00"/>
<circle cx="64.0562" cy="83.6997" r="1.35989" fill="#FFBF00"/>
<circle cx="64.0562" cy="78.1763" r="1.35989" fill="#FFBF00"/>
<circle cx="64.0562" cy="72.6529" r="1.35989" fill="#FFBF00"/>
<circle cx="64.0562" cy="67.1294" r="1.35989" fill="#FFBF00"/>
<circle cx="69.398" cy="83.6997" r="1.35989" fill="#FFBF00"/>
<circle cx="69.398" cy="78.1763" r="1.35989" fill="#FFBF00"/>
<circle cx="69.398" cy="72.6529" r="1.35989" fill="#FFBF00"/>
<circle cx="69.398" cy="67.1294" r="1.35989" fill="#FFBF00"/>
<circle cx="74.7398" cy="83.6997" r="1.35989" fill="#FFBF00"/>
<circle cx="74.7398" cy="78.1763" r="1.35989" fill="#FFBF00"/>
<circle cx="74.7398" cy="72.6529" r="1.35989" fill="#FFBF00"/>
<circle cx="74.7398" cy="67.1294" r="1.35989" fill="#FFBF00"/>
<circle cx="80.0816" cy="83.6997" r="1.35989" fill="#FFBF00"/>
<circle cx="80.0816" cy="78.1763" r="1.35989" fill="#FFBF00"/>
<circle cx="80.0816" cy="72.6529" r="1.35989" fill="#FFBF00"/>
<circle cx="80.0816" cy="67.1294" r="1.35989" fill="#FFBF00"/>
<path fill-rule="evenodd" clip-rule="evenodd" d="M75.3525 45.1304L75.3518 45.0498L75.3509 44.928C75.3505 44.866 75.3502 44.8039 75.3502 44.7415C75.3813 44.7415 75.4125 44.7415 75.4644 44.7095C75.4172 44.199 75.3735 43.6885 75.3297 43.1782L75.3296 43.1774C75.2192 41.8899 75.109 40.604 74.9455 39.3235C74.7172 37.5353 74.4682 35.7364 74.0843 33.9695C73.1712 29.7756 71.8533 25.7095 70.079 21.8137C68.813 19.0356 67.3811 16.3532 65.6378 13.8412C63.9776 11.4462 62.1721 9.20025 60.0242 7.24171C58.1772 5.57056 56.1953 4.12294 53.9539 3.06915C51.7645 2.0473 49.4817 1.40865 47.0536 1.45122C46.4102 1.47251 46.1197 1.75991 46.1197 2.41985C46.1093 3.14366 46.4517 3.55879 47.0847 3.56943C48.4648 3.60137 49.8137 3.85683 51.1315 4.29324C53.9332 5.2193 56.3717 6.79465 58.4988 8.8277C59.9619 10.2221 61.342 11.7442 62.5975 13.3515C64.8285 16.1935 66.6029 19.3442 68.0867 22.6653C69.2385 25.2305 70.2761 27.8384 70.9921 30.5527C71.6043 32.905 72.1024 35.2787 72.5486 37.663C72.8495 39.2703 73.0155 40.9095 73.1712 42.5381C73.2444 43.3266 73.2556 44.1256 73.2668 44.924V44.9241V44.9241V44.9242V44.9242V44.9243V44.9243V44.9244V44.9244V44.9245V44.9245V44.9245V44.9246V44.9246V44.9247V44.9247V44.9248V44.9248V44.9249V44.9249V44.925V44.925V44.925V44.9251V44.9251L73.2668 44.9256L73.2668 44.9261L73.2668 44.9267L73.2668 44.9272L73.2669 44.9277L73.2669 44.9282L73.2669 44.9287L73.2669 44.9292L73.2669 44.9297L73.2669 44.9302L73.2669 44.9307L73.2669 44.9312L73.2669 44.9317L73.267 44.9322L73.267 44.9327L73.267 44.9332L73.267 44.9337L73.267 44.9342L73.267 44.9346L73.267 44.9351L73.267 44.9356L73.2671 44.936L73.2671 44.9365L73.2671 44.937C73.2717 45.266 73.2762 45.5949 73.2853 45.923C73.306 46.5297 73.7107 46.9023 74.3229 46.9023C74.9352 46.9023 75.3398 46.5191 75.3502 45.9123C75.3571 45.6502 75.3548 45.3927 75.3525 45.1337L75.3525 45.1304ZM59.8037 47.9026C59.7998 48.1646 59.7959 48.4266 59.7959 48.6886C59.8166 48.6886 59.8374 48.6886 59.8685 48.7099C59.8451 49.2208 59.8225 49.7317 59.7998 50.2427C59.7317 51.7754 59.6636 53.3082 59.578 54.841C59.551 55.3321 59.4758 55.8276 59.4009 56.3219C59.3605 56.5882 59.3201 56.8542 59.2874 57.1189C59.2684 57.275 59.2491 57.4312 59.2298 57.5873C59.1332 58.3679 59.0366 59.1484 58.9761 59.929C58.9242 60.5144 59.3289 60.9189 59.8996 60.9721C60.4184 61.0253 60.958 60.5995 61.0307 60.0673C61.0857 59.6886 61.1433 59.3105 61.2009 58.9326C61.3716 57.813 61.542 56.6949 61.6429 55.5648C61.8089 53.7872 61.923 51.9883 61.9542 50.2001C61.977 48.8262 61.9384 47.4524 61.8999 46.0786C61.8859 45.579 61.8718 45.0795 61.8608 44.5799C61.8504 44.0051 61.8193 43.4197 61.757 42.8449C61.7246 42.5391 61.6925 42.2333 61.6605 41.9276L61.6604 41.9268L61.6603 41.9259L61.6603 41.9255C61.5284 40.6676 61.3967 39.4111 61.2382 38.1614C61.2161 37.9924 61.1949 37.8229 61.1736 37.653C61.0649 36.7854 60.9554 35.9114 60.7297 35.0746C60.3666 33.776 59.8892 32.5093 59.4016 31.2533C58.3535 28.5709 56.8386 26.1547 54.8774 24.1003C53.9539 23.1317 52.8332 22.3121 51.7022 21.5777C50.1354 20.5664 48.3714 20.1833 46.514 20.3216C46.4206 20.3323 46.3272 20.3855 46.2442 20.4387C45.8291 20.7048 45.6112 21.2583 45.8084 21.7692C45.9744 22.1844 46.3272 22.3973 46.8149 22.4398C46.915 22.4479 47.0157 22.4555 47.1169 22.4632H47.1169C47.8127 22.5156 48.5271 22.5694 49.1703 22.8017C51.3805 23.5894 53.0719 25.1328 54.4935 26.9956C55.7387 28.6348 56.7763 30.4124 57.5649 32.3284C58.1252 33.6908 58.6752 35.0533 58.862 36.5329C58.8911 36.7602 58.9205 36.9873 58.9498 37.2142C59.1087 38.4427 59.2669 39.6661 59.3808 40.897C59.5468 42.6427 59.6817 44.3883 59.7855 46.134C59.8214 46.7235 59.8126 47.313 59.8037 47.9026ZM46.8564 7.6358C48.4648 7.6358 49.9797 8.00835 51.4843 8.49799C51.972 8.65765 52.2833 9.01956 52.2833 9.5092C52.2833 9.81788 52.1173 10.2756 51.889 10.3927C51.5673 10.563 51.09 10.6056 50.7372 10.5098C49.3364 10.1266 47.9356 9.78595 46.4621 9.86046C44.9886 9.93497 43.5878 10.2969 42.2285 10.8823C39.6448 11.9893 37.611 13.8521 35.764 15.949C34.2801 17.6308 33.0661 19.5255 31.9869 21.5159C30.5135 24.2302 29.2683 27.051 28.4382 30.0314C27.9658 31.7233 27.5744 33.433 27.1819 35.1472C27.0484 35.7301 26.9148 36.3135 26.7779 36.8969C26.643 37.4717 26.1865 37.8975 25.6365 37.8655C25.0658 37.823 24.63 37.3865 24.7234 36.7692C24.9309 35.3961 25.1903 34.0336 25.4809 32.6818C26.0619 30.0314 26.9232 27.4767 27.9401 24.9753C29.2164 21.8566 30.7729 18.8762 32.817 16.2044C33.7717 14.9697 34.7678 13.7456 35.8781 12.6599C38.0571 10.5098 40.5786 8.87054 43.5463 8.1148C44.3071 7.92155 45.083 7.83729 45.8565 7.7533C46.1908 7.71701 46.5245 7.68077 46.8564 7.6358ZM20.0539 52.6277C20.0021 53.458 20.3964 53.8199 21.3406 53.8199C21.3744 53.8199 21.4087 53.8206 21.4431 53.8212H21.4432C21.5463 53.8232 21.6493 53.8252 21.7349 53.8092C21.8161 53.8033 21.9006 53.7807 21.9846 53.7582C22.051 53.7405 22.1171 53.7228 22.1811 53.7134C24.4847 53.3409 26.4147 52.2978 27.9297 50.4563C29.6418 48.3807 30.3682 45.9431 30.6068 43.314C30.6617 42.7246 30.7011 42.1325 30.7405 41.5406C30.8128 40.4543 30.8851 39.3685 31.053 38.3005C31.3643 36.3526 31.7275 34.3941 32.3189 32.5207C32.805 30.9944 33.4257 29.5067 34.0452 28.0219L34.0452 28.0218C34.2854 27.446 34.5255 26.8708 34.7574 26.2938C34.9961 25.7084 34.8404 25.0697 34.332 24.8036C33.7509 24.4949 33.1387 24.6759 32.8689 25.2932C32.6873 25.719 32.5018 26.1435 32.3163 26.5679L32.3163 26.5679C31.7599 27.8412 31.2035 29.1146 30.7521 30.4238C30.171 32.1162 29.7352 33.8725 29.3409 35.6288C28.874 37.7045 28.5834 39.812 28.5523 41.9515C28.5315 43.3353 28.3551 44.6871 27.9401 46.0176C27.4524 47.5823 26.6326 48.9022 25.4186 49.956C24.1527 51.063 22.6377 51.5952 20.9878 51.7017C20.4794 51.7336 20.0851 52.1168 20.0539 52.6277ZM57.3989 47.7304C57.3989 48.1718 57.4034 48.6133 57.4079 49.0547C57.4186 50.1141 57.4294 51.1735 57.3781 52.233C57.3334 53.1591 57.2188 54.0798 57.104 55.0029C57.0592 55.3635 57.0143 55.7244 56.9735 56.0862C56.9112 56.6077 56.4443 56.9377 55.8424 56.9058C55.334 56.8845 54.9189 56.4907 54.9293 55.9691C54.9397 55.4049 54.9812 54.8514 55.0331 54.2873C55.0551 54.0796 55.0864 53.8738 55.1176 53.6692C55.1599 53.3913 55.2019 53.1155 55.2198 52.8397C55.2694 52.1705 55.2926 51.4946 55.3158 50.8227L55.3159 50.8199C55.3218 50.6484 55.3277 50.4772 55.334 50.3063C55.3444 50.0242 55.3567 49.7422 55.369 49.4601C55.406 48.6139 55.4429 47.7677 55.4274 46.9215C55.3962 45.4313 55.3444 43.9304 55.2198 42.4402C55.1988 42.2027 55.1785 41.9648 55.1582 41.7268L55.158 41.7248C55.0283 40.2032 54.898 38.6754 54.5661 37.2032C54.286 35.9153 53.6841 34.6805 53.0823 33.5097C52.605 32.5836 51.9616 31.7214 51.2872 30.9231C50.6231 30.1354 49.7826 29.5181 48.8279 29.0923C48.2469 28.8368 47.9874 28.2833 48.1016 27.7937C48.2469 27.1763 48.9317 26.6973 49.7203 27.0699C51.1211 27.7192 52.2729 28.7091 53.2691 29.9226C54.3171 31.1999 55.1161 32.6262 55.7905 34.1377C56.4028 35.4895 56.7659 36.9052 56.8905 38.3954C56.9479 39.0766 57.0368 39.7579 57.1257 40.4391L57.1258 40.4396C57.1813 40.8652 57.2369 41.2908 57.2848 41.7164C57.3366 42.2061 57.3885 42.6957 57.3885 43.1853C57.3989 44.6968 57.3989 46.2189 57.3989 47.7304ZM70.6841 48.2311L70.6841 48.2281C70.6824 47.6126 70.6807 46.9968 70.6807 46.3801H70.6185L70.6029 46.2368L70.6028 46.2357L70.6027 46.2344C70.5561 45.8059 70.5105 45.3852 70.4732 44.9644C70.3383 43.272 70.2034 41.5795 70.0581 39.8871C70.0063 39.2165 69.6223 38.9078 68.8648 38.9291C68.3668 38.9397 67.9725 39.3655 68.0036 39.951C68.0214 40.3471 68.0665 40.7468 68.1115 41.146L68.1115 41.1461L68.1115 41.1462L68.1115 41.1463L68.1115 41.1464L68.1115 41.1465L68.1115 41.1466L68.1115 41.1467L68.1115 41.1468L68.1116 41.1469L68.1116 41.147L68.1116 41.1471L68.1116 41.1472L68.1116 41.1473L68.1116 41.1474L68.1116 41.1475L68.1116 41.1476L68.1116 41.1477L68.1117 41.1478L68.1117 41.1479L68.1117 41.148C68.1452 41.4453 68.1787 41.7422 68.2007 42.0372C68.2198 42.282 68.2391 42.5267 68.2584 42.7715C68.3549 43.9956 68.4515 45.2198 68.512 46.444C68.5743 47.7638 68.6054 49.0944 68.6158 50.4143C68.622 50.7278 68.5945 51.0453 68.5671 51.3619C68.5489 51.572 68.5307 51.7816 68.5224 51.9896C68.4983 52.5162 68.4788 53.0429 68.4592 53.5691L68.4592 53.5701L68.4592 53.5703L68.4592 53.5706L68.4592 53.5708L68.4592 53.571L68.4591 53.5712L68.4591 53.5714L68.4591 53.5716L68.4591 53.5719L68.4591 53.5721L68.4591 53.5723L68.4591 53.5725L68.4591 53.5727L68.459 53.5729L68.459 53.5732L68.459 53.5734L68.459 53.5736L68.459 53.5738L68.459 53.574L68.459 53.5742L68.459 53.5745C68.4198 54.6313 68.3807 55.6865 68.3045 56.737C68.18 58.4294 68.014 60.1219 67.7857 61.793C67.5699 63.3779 67.2895 64.9628 67.0102 66.5416L67.0101 66.5418L67.01 66.5423C66.9536 66.8613 66.8972 67.1799 66.8414 67.4983C66.7377 68.0944 67.0697 68.7011 67.5989 68.8289C68.1592 68.9566 68.813 68.5521 68.9167 67.9667C69.0036 67.4793 69.0923 66.9919 69.1811 66.5043L69.1811 66.5042C69.4529 65.0113 69.725 63.517 69.944 62.0165C70.1827 60.388 70.3279 58.7594 70.4628 57.1202C70.577 55.7045 70.6496 54.2781 70.6703 52.8518C70.6926 51.3087 70.6884 49.7711 70.6841 48.2311ZM37.5279 43.8888C37.5133 43.6996 37.4937 43.5096 37.4741 43.319C37.424 42.8338 37.3736 42.3448 37.4034 41.8557C37.4657 40.7381 37.5902 39.6311 37.7458 38.524C37.8181 37.9969 37.9525 37.4761 38.0865 36.9567L38.0866 36.9564C38.1258 36.8048 38.1649 36.6532 38.2024 36.5016C38.3892 35.7459 38.9288 35.3733 39.5617 35.533C40.1013 35.6714 40.4437 36.3633 40.2466 37.0445C39.6447 39.0988 39.4891 41.2064 39.541 43.3353C39.5453 43.5472 39.5515 43.7596 39.5577 43.9722L39.5577 43.9724C39.581 44.7744 39.6044 45.5803 39.5306 46.3795C39.3853 47.8271 39.157 49.2854 38.8769 50.7117C38.4618 52.8512 37.6836 54.8736 36.6459 56.7896C35.93 58.1095 35.131 59.3549 34.0933 60.4406C33.9653 60.5719 33.8373 60.7044 33.7093 60.8369C33.4534 61.1018 33.1975 61.3667 32.9415 61.6221C32.4435 62.1118 31.8312 62.165 31.4162 61.6966C31.0011 61.2283 30.9077 60.7174 31.4577 60.0787C31.7001 59.7968 31.9489 59.5198 32.1978 59.2426L32.1978 59.2426L32.1978 59.2425C32.5881 58.8079 32.9788 58.3728 33.3462 57.9179C34.4254 56.598 35.2555 55.1078 35.8054 53.4899C36.345 51.9039 36.7601 50.2753 37.144 48.6467C37.2747 48.0945 37.3086 47.5247 37.3427 46.9503L37.3427 46.9503L37.3427 46.9502L37.3427 46.9502L37.3427 46.9501L37.3427 46.9501L37.3427 46.95L37.3427 46.9499L37.3427 46.9499L37.3427 46.9498L37.3428 46.9498L37.3428 46.9497L37.3428 46.9497L37.3428 46.9496L37.3428 46.9495L37.3428 46.9495L37.3428 46.9494L37.3428 46.9494L37.3428 46.9493L37.3428 46.9493C37.3547 46.7491 37.3666 46.5483 37.3827 46.3476C37.4094 45.9246 37.4334 45.5045 37.4575 45.0828L37.4576 45.0818V45.0818V45.0817V45.0817V45.0817V45.0816V45.0816V45.0815C37.4802 44.6865 37.5028 44.2901 37.5279 43.8888ZM44.1451 42.7139C44.1221 42.1767 44.0991 41.6396 44.0858 41.1024C44.0754 39.2716 44.5216 37.5366 45.6319 36.089C46.5554 34.8649 47.5827 34.4711 48.8175 35.8655C49.3869 36.507 49.7967 37.295 50.1981 38.0666C50.2429 38.1528 50.2876 38.2388 50.3324 38.3243C50.6333 38.9204 51.1625 39.2397 51.7747 39.0055C52.2728 38.8139 52.5219 38.2178 52.3247 37.6111C51.8266 36.0677 51.0276 34.7265 49.7617 33.7366C48.6929 32.8851 47.4893 32.6083 46.1611 33.0554C44.6772 33.5556 43.816 34.7372 43.1 36.057C41.7614 38.5372 41.8963 41.2302 42.052 43.9444C42.1086 44.9806 42.077 46.0232 42.0456 47.0621L42.0456 47.0626C42.0367 47.3577 42.0277 47.6525 42.0209 47.9467C42.0143 48.1891 41.9787 48.4273 41.9429 48.6666C41.9221 48.8055 41.9012 48.9449 41.886 49.0856L41.8501 49.3738C41.7673 50.0358 41.6835 50.705 41.6473 51.3741C41.6058 51.9702 41.9897 52.3853 42.5501 52.4386C43.0585 52.4918 43.6292 52.0767 43.6915 51.5445C43.7309 51.1825 43.772 50.8206 43.8131 50.4587C43.9774 49.0111 44.1418 47.5635 44.1999 46.1159C44.2422 44.9819 44.1936 43.8479 44.1451 42.7139ZM66.3227 47.8464V49.6027C66.3123 50.252 65.9284 50.6245 65.285 50.6245C64.6521 50.6245 64.2785 50.2307 64.2578 49.5814C64.2493 49.1773 64.2431 48.7724 64.2369 48.3671L64.2369 48.366C64.2204 47.2878 64.2039 46.2072 64.1436 45.1321C64.0706 43.859 63.9334 42.5941 63.7955 41.3229L63.7955 41.3227C63.7766 41.1486 63.7577 40.9743 63.7389 40.7999C63.6144 39.5545 63.4795 38.2985 63.3135 37.0531C63.0333 34.8072 62.5664 32.6038 61.6533 30.5282C60.9581 28.9635 60.211 27.4202 59.4639 25.8768L59.4638 25.8766C59.0695 25.0677 59.2148 24.4503 59.91 24.1203C60.3251 23.9181 60.709 24.0139 60.9684 24.3438C61.3316 24.8122 61.6637 25.3338 61.9334 25.866C63.106 28.1971 64.1436 30.6027 64.7973 33.1467C65.0412 34.11 65.1828 35.0976 65.3248 36.0882L65.3248 36.0883L65.3248 36.0883L65.3248 36.0884L65.3249 36.0884L65.3249 36.0885L65.3249 36.0885L65.3249 36.0886L65.3249 36.0886L65.3249 36.0886L65.3249 36.0887L65.3249 36.0887L65.3249 36.0888L65.325 36.0888L65.325 36.0889L65.325 36.0889L65.325 36.089L65.325 36.0891C65.3462 36.2365 65.3673 36.384 65.3888 36.5315C65.586 37.8195 65.7416 39.1181 65.8973 40.4166V40.4167C65.9906 41.1937 66.0633 41.9814 66.1152 42.7691C66.2085 44.4503 66.2916 46.1422 66.3746 47.8341V47.8342V47.8343V47.8344V47.8345V47.8346V47.8346V47.8347V47.8348V47.8349V47.835V47.8351V47.8352V47.8353V47.8354V47.8355V47.8356V47.8357V47.8357C66.3434 47.8464 66.3331 47.8464 66.3227 47.8464ZM33.8131 35.7904C33.3151 37.9937 32.9519 40.2077 33.0245 42.3898C33.0245 42.6078 33.021 42.8186 33.0175 43.0242L33.0175 43.0243C33.0091 43.5212 33.0012 43.988 33.0453 44.4548C33.0764 44.7209 33.2839 45.0083 33.4811 45.2105C34.0622 45.796 35.1413 45.1041 35.1102 44.2632C35.0376 42.2408 35.1309 40.229 35.4941 38.2279C35.9714 35.5881 36.7082 33.0441 37.8496 30.6172C38.7212 28.7651 39.7277 27.0088 41.1493 25.5506C41.6389 25.04 42.1862 24.5887 42.7307 24.1397L42.731 24.1393C42.8789 24.0174 43.0265 23.8957 43.1727 23.773C43.7227 23.3153 43.8057 22.7511 43.4632 22.1657C43.1831 21.6973 42.4152 21.5696 41.9379 21.9741C41.0663 22.6979 40.2154 23.443 39.4164 24.2413C38.026 25.6357 37.0298 27.3388 36.1686 29.0951C35.1206 31.224 34.3423 33.4593 33.8131 35.7904ZM55.2614 19.7479C54.7637 19.8343 54.4751 19.5325 54.1954 19.24C54.0961 19.1361 53.9978 19.0333 53.8917 18.9496C52.2626 17.6404 50.4882 16.6504 48.4544 16.2673C46.6593 15.9266 44.9368 16.246 43.2765 17.0017C41.1701 17.9597 39.4995 19.4818 38.0364 21.2701L37.9648 21.3573C37.7598 21.6079 37.5495 21.8649 37.2893 22.0364C36.7601 22.3877 36.2828 22.2706 35.8781 21.7916C35.598 21.451 35.5772 20.8336 35.9093 20.4079C37.6733 18.13 39.7485 16.2353 42.3427 15.0112C43.7539 14.3513 45.2585 14.0426 46.8357 14.0107C48.8695 13.9787 50.7684 14.4364 52.5116 15.437C53.6882 16.1121 54.769 16.9542 55.846 17.7935L55.9774 17.8958C56.3509 18.1832 56.4235 18.7261 56.216 19.1731C56.05 19.5457 55.7491 19.8544 55.2614 19.7479ZM56.1633 60.7393L56.1635 60.7382L56.1637 60.7374C56.1967 60.5868 56.2279 60.4444 56.2574 60.3125C56.2574 59.3971 55.9461 59.0139 55.3443 58.9394C54.7943 58.8755 54.3377 59.2481 54.1821 59.8122C54.0346 60.3489 53.8916 60.8864 53.7487 61.4236L53.7486 61.4237L53.7486 61.4238L53.7486 61.4239L53.7485 61.4241L53.7485 61.4242L53.7485 61.4243L53.7484 61.4244L53.7484 61.4246L53.7483 61.4247L53.7483 61.4248L53.7483 61.4249L53.7482 61.4251L53.7482 61.4252L53.7482 61.4253C53.3583 62.8905 52.9689 64.3538 52.4907 65.7943C51.5465 68.647 50.239 71.3506 48.6099 73.8627C48.1325 74.5907 47.627 75.294 47.1208 75.9983C46.8129 76.4266 46.5048 76.8553 46.2026 77.2901C45.9017 77.7266 45.9017 78.2375 46.2233 78.5887C46.5554 78.9613 46.9912 79.1635 47.4478 78.9187C47.7383 78.7697 47.9666 78.4929 48.1845 78.2268C49.6683 76.4067 50.9031 74.4162 52.003 72.3299C53.601 69.2856 54.7943 66.0817 55.6867 62.7501C55.8765 62.0472 56.0336 61.3309 56.163 60.7405L56.1631 60.7399L56.1632 60.7393L56.1633 60.7393ZM52.955 48.104V48.1042C52.975 49.0684 52.995 50.0329 52.9162 50.9873C52.7191 53.4674 52.4493 55.9475 51.8163 58.3638C51.5881 59.2435 51.3506 60.1233 51.1132 61.0031L51.113 61.0036C50.9943 61.4435 50.8755 61.8835 50.7579 62.3234C50.6334 62.7811 50.3429 63.0792 49.8967 63.1856C49.5024 63.2708 49.0769 63.1856 48.9109 62.8024C48.7553 62.4618 48.6619 62.0147 48.7449 61.6528C48.9474 60.77 49.1724 59.8934 49.3972 59.0175L49.3972 59.0174L49.3972 59.0172L49.3972 59.0172C49.6792 57.9184 49.9609 56.8208 50.1976 55.7133C50.457 54.5318 50.5712 53.2971 50.6542 52.0836C50.7994 50.0293 50.9136 47.975 50.9655 45.9206C50.9785 45.283 50.9215 44.6412 50.8646 44.0005L50.8646 44.0005L50.8645 44.0004L50.8645 44.0003L50.8645 44.0002L50.8645 44.0001L50.8645 44L50.8645 43.9999L50.8645 43.9998L50.8645 43.9997L50.8645 43.9996L50.8645 43.9995L50.8645 43.9994L50.8645 43.9994C50.8311 43.6243 50.7978 43.2496 50.7787 42.8764C50.7683 42.5783 50.7787 42.2803 50.8513 41.9929C50.9966 41.4287 51.2975 41.2584 51.9824 41.2797C52.4908 41.2904 52.7917 41.6097 52.8228 42.078C52.9086 43.1516 52.959 44.2252 53.009 45.2927C53.0195 45.5165 53.03 45.74 53.0408 45.9632C53.0477 46.1543 53.0454 46.3407 53.0431 46.5287V46.5289L53.0431 46.5296C53.0419 46.624 53.0408 46.7188 53.0408 46.8147C52.9992 46.8041 52.9681 46.8041 52.937 46.8041C52.937 47.2358 52.946 47.6686 52.955 48.1014V48.1016V48.1018V48.102V48.1023V48.1025V48.1027V48.1029V48.1031V48.1034V48.1036V48.1038V48.104ZM67.6612 31.894C68.3253 31.7663 68.6054 31.4469 68.6054 30.6486C68.6037 30.6395 68.6013 30.6256 68.5982 30.6078V30.6078L68.5982 30.6077C68.5834 30.5222 68.5532 30.3476 68.5017 30.1803C67.5367 27.136 66.3019 24.2088 64.7558 21.42C63.1889 18.5993 61.4042 15.9595 59.111 13.6923C58.5714 13.1601 58.0214 13.1282 57.5441 13.6072C57.1083 14.0542 57.1187 14.7248 57.6064 15.2251C59.1628 16.8324 60.5118 18.61 61.7051 20.5259C63.0333 22.6335 64.1954 24.8369 65.0982 27.1679C65.475 28.1304 65.8233 29.1045 66.1727 30.0816L66.1727 30.0817L66.1728 30.0818L66.1728 30.0819L66.1729 30.082L66.1729 30.0821L66.1729 30.0822L66.173 30.0823L66.173 30.0824L66.173 30.0825L66.1731 30.0825L66.1731 30.0826L66.1731 30.0827C66.295 30.4237 66.4171 30.765 66.5405 31.1063C66.7169 31.6066 67.2461 31.9685 67.6612 31.894ZM26.1553 21.3541C25.3563 21.3541 24.8479 20.5664 25.2318 19.8213C25.3865 19.5176 25.5402 19.2128 25.694 18.9077C26.3756 17.5558 27.0593 16.1996 27.8467 14.9143C28.9258 13.1686 30.0776 11.4549 31.3539 9.85827C32.9 7.93165 34.664 6.20728 36.7185 4.82353C37.3204 4.41904 38.0156 4.64257 38.2958 5.11092C38.5967 5.60056 38.3995 6.2605 37.8911 6.66499C37.0091 7.37815 36.1271 8.10196 35.2866 8.8577C33.1905 10.763 31.4888 13.0196 30.0257 15.4465C29.2605 16.7151 28.5817 18.0309 27.9035 19.3456C27.6712 19.7959 27.4389 20.2461 27.2033 20.6941C26.9647 21.1518 26.7052 21.3541 26.1553 21.3541ZM28.6145 69.1805C28.1995 69.3508 27.9919 69.6595 28.0438 70.1172C27.8778 70.8517 28.7909 71.4478 29.4446 71.1923C31.769 70.2343 33.8754 68.9038 35.7224 67.1794C37.4242 65.6041 38.9495 63.8371 40.0702 61.7615C40.7757 60.4629 41.388 59.1324 41.9794 57.7805C42.27 57.1099 41.9898 56.5884 41.3983 56.3861C40.7239 56.1413 40.2465 56.3861 39.9871 57.0674C39.8107 57.5251 39.6136 57.9721 39.4164 58.4085C38.5967 60.1755 37.6109 61.8466 36.3554 63.3262C35.4837 64.3374 34.5395 65.2954 33.533 66.1682C32.0699 67.4455 30.4097 68.4354 28.6145 69.1805ZM66.0424 57.099C66.0016 57.4096 65.9625 57.7201 65.9234 58.0305L65.9234 58.0308C65.8231 58.8265 65.7231 59.6207 65.5962 60.4094C65.5539 60.6797 65.5123 60.9504 65.4707 61.2211L65.4706 61.2218C65.2877 62.4115 65.1046 63.6031 64.8595 64.7735C64.5171 66.4127 64.1331 68.0519 63.6662 69.6699C63.3756 70.6917 63.0298 71.6946 62.6839 72.6975C62.5109 73.199 62.338 73.7005 62.172 74.2043C61.9333 74.9069 61.6843 75.1197 61.0513 75.1197C60.2835 75.1197 59.8165 74.4811 60.0655 73.7253C60.2299 73.2232 60.4052 72.7238 60.5805 72.2242L60.5806 72.2238L60.5807 72.2235L60.5808 72.2231L60.581 72.2227L60.5811 72.2224L60.5812 72.222L60.5813 72.2216L60.5815 72.2213L60.5816 72.2209L60.5817 72.2207C60.8927 71.3341 61.204 70.4468 61.456 69.5421C62.0267 67.4452 62.5559 65.327 63.0021 63.1875C63.2618 61.9237 63.442 60.6436 63.6222 59.3626L63.6223 59.3621L63.6224 59.3615L63.6225 59.3609L63.6226 59.3604L63.6226 59.3599L63.6227 59.3595L63.6227 59.3591L63.6228 59.3587L63.6228 59.3583C63.6944 58.8498 63.766 58.3412 63.8426 57.8334C63.8815 57.586 63.9029 57.3385 63.9243 57.091L63.9347 56.9718C63.9384 56.9291 63.9423 56.8863 63.9463 56.8435C64.0294 55.9813 64.4859 55.7897 65.2434 55.8643C65.6896 55.9068 66.0113 56.3752 66.0113 56.9925V57.099C66.0216 57.0883 66.032 57.0883 66.0424 57.099ZM46.494 46.4336C46.4737 46.5789 46.4535 46.7242 46.4309 46.8687C46.4517 46.8741 46.4724 46.8767 46.4932 46.8794C46.5139 46.882 46.5347 46.8847 46.5554 46.89C46.5387 47.0727 46.5229 47.2553 46.5073 47.4375L46.5073 47.4377C46.4745 47.8184 46.4419 48.1976 46.3998 48.5718C46.3452 49.0701 46.2969 49.5701 46.2487 50.0703C46.1227 51.3759 45.9965 52.6833 45.7565 53.9685C45.4789 55.429 45.0622 56.8657 44.6465 58.2991L44.6465 58.2992C44.5804 58.5268 44.5144 58.7544 44.449 58.9819C44.2872 59.553 44.0728 60.1076 43.8589 60.661C43.7299 60.9947 43.6011 61.328 43.484 61.6643C43.2661 62.3029 43.5151 62.8032 44.117 63.0374C44.6254 63.2396 45.2273 62.9416 45.4555 62.3987C46.4206 60.1421 47.1677 57.8111 47.6657 55.3842C48.1949 52.8082 48.5373 50.2217 48.5685 47.5926C48.5685 47.4595 48.5711 47.3264 48.5737 47.1934L48.5737 47.1931C48.5763 47.0601 48.5789 46.9272 48.5789 46.7942C48.5789 46.6671 48.5868 46.5372 48.5947 46.4078C48.6139 46.0931 48.6329 45.7809 48.5373 45.5169C48.4336 45.2189 48.0704 44.9102 47.7591 44.8144C47.3544 44.676 46.846 44.7399 46.7007 45.2827C46.6025 45.6549 46.5482 46.044 46.494 46.4336ZM34.249 49.4552C34.159 49.6965 34.0726 49.9401 33.9861 50.1838C33.8132 50.671 33.6402 51.1583 33.4396 51.6266C32.5887 53.6065 31.3643 55.3415 29.7663 56.7466C27.8778 58.4071 25.7091 59.5141 23.2292 59.8866C23.1565 59.8973 23.0839 59.9114 23.0113 59.9256C22.866 59.954 22.7207 59.9824 22.5754 59.9824C21.9944 59.9931 21.5689 59.6524 21.5067 59.1522C21.4237 58.4496 21.6934 57.9919 22.3368 57.8748C23.9763 57.5874 25.5224 57.0659 26.9336 56.1611C28.6353 55.0541 29.9946 53.6065 30.9389 51.7863C31.2576 51.1629 31.5233 50.5123 31.7891 49.8617L31.7891 49.8616C31.8954 49.6014 32.0017 49.3412 32.1114 49.0827C32.3397 48.5398 32.8066 48.295 33.45 48.4014C33.8547 48.4759 34.1556 48.9124 34.249 49.4552ZM39.2712 77.4076C39.4476 77.8121 39.7589 78.025 40.2258 78.0569C40.3059 78.0248 40.3919 78.001 40.4767 77.9776L40.4768 77.9775C40.6444 77.9312 40.8073 77.8862 40.9106 77.7802C41.1974 77.494 41.4893 77.2104 41.7817 76.9264L41.7818 76.9263L41.7823 76.9258C42.6642 76.0691 43.5506 75.208 44.3141 74.2569C45.497 72.788 46.5554 71.202 47.5412 69.5841C48.2779 68.3813 48.8486 67.0614 49.409 65.7628C49.5439 65.4648 49.4609 64.9432 49.2741 64.6558C48.8279 63.9746 47.8318 64.1236 47.4893 64.9325C46.6592 66.8485 45.7046 68.69 44.5009 70.3718C43.516 71.7376 42.4269 73.0294 41.3392 74.3195L41.3356 74.3238C41.1869 74.5002 41.0383 74.6765 40.8899 74.853C40.6159 75.1752 40.2988 75.4622 39.983 75.7479L39.983 75.7479L39.9829 75.748C39.8085 75.9058 39.6344 76.0633 39.4683 76.2261C39.1259 76.5561 39.0948 76.9819 39.2712 77.4076ZM59.0383 63.5159C59.7024 63.5265 60.1797 64.1652 60.0241 64.8358C59.0902 68.8806 57.5752 72.7019 55.6971 76.3741C55.4896 76.7786 55.2613 77.1618 55.0226 77.5344C54.5868 78.2156 54.0265 78.3966 53.4765 78.0347C53.02 77.7366 52.8954 77.0128 53.2171 76.4061C53.3948 76.0622 53.5768 75.7216 53.7586 75.3815L53.76 75.3789L53.7603 75.3783L53.7607 75.3777L53.761 75.3771L53.7613 75.3765L53.7613 75.3764C54.1413 74.6656 54.5202 73.9566 54.8566 73.2234C56.1537 70.4134 57.2017 67.5075 57.9384 64.4845C58.0629 63.8991 58.4987 63.5159 59.0383 63.5159ZM33.699 73.2361C33.3359 73.449 33.035 73.7364 33.1283 74.1941C33.1283 75.1202 33.9792 75.6843 34.6848 75.1947L34.7457 75.1527C35.9297 74.3361 37.1315 73.5072 38.2128 72.5549C39.2608 71.6182 40.2466 70.5644 41.1286 69.4574C42.0121 68.3435 42.8057 67.1375 43.5965 65.9359C43.6973 65.7826 43.7982 65.6294 43.8991 65.4765C44.3142 64.8485 44.1274 64.1459 43.5878 63.8373C43.0379 63.5286 42.4464 63.784 42.0314 64.4014C41.8257 64.7056 41.6223 65.0117 41.4189 65.3178L41.4188 65.318L41.4187 65.3181L41.4183 65.3188L41.4175 65.32C40.6464 66.4804 39.8752 67.641 38.9807 68.7017C37.4761 70.4899 35.7121 72.0333 33.699 73.2361ZM21.7141 35.1932C20.9982 35.3315 20.5416 34.4161 20.6869 33.9052C21.434 31.0845 22.1915 28.2637 22.9593 25.4537C23.1253 24.8363 23.5612 24.5383 24.1111 24.5702C24.578 24.5915 24.9724 24.9321 25.0761 25.4643C25.1072 25.6346 25.0657 25.8369 25.0139 26.0178C24.6974 27.1567 24.3757 28.2957 24.054 29.4346C23.7324 30.5735 23.4107 31.7125 23.0942 32.8514C22.9554 33.3398 22.8544 33.8475 22.7552 34.3469L22.7414 34.4161C22.6376 34.9909 22.2745 35.2251 21.7141 35.1932ZM19.5247 46.4123C19.4625 47.2745 19.8672 47.647 20.8841 47.647C20.9097 47.647 20.9356 47.6473 20.9617 47.6476H20.962H20.9623C21.094 47.6491 21.2281 47.6506 21.3406 47.6151C21.4465 47.6079 21.5477 47.5809 21.6472 47.5543C21.694 47.5419 21.7404 47.5295 21.7868 47.5193C23.6234 47.1361 24.9101 45.9972 25.6054 44.2515C25.9478 43.4 26.1034 42.4526 26.2176 41.5372C26.2591 41.154 26.0619 40.6538 25.8233 40.3238C25.5535 39.9406 25.0554 39.9938 24.6507 40.1854C24.1942 40.3983 24.0904 40.8454 24.08 41.3243C24.0385 43.6022 22.9178 45.4756 20.386 45.5288C19.9502 45.5395 19.5662 45.9652 19.5247 46.4123ZM31.0024 62.9345L31.0024 62.9345C30.9058 63.1173 30.8096 63.2994 30.6587 63.4099C29.0815 64.5915 27.276 65.3153 25.3979 65.8262C24.7441 66.0071 24.1319 65.5601 23.997 64.9214C23.8933 64.4318 24.3187 63.9102 24.9413 63.7186C26.4874 63.2396 27.9816 62.6436 29.3305 61.7175C29.7041 61.462 30.1192 61.3769 30.5342 61.6217C30.9078 61.8346 31.1153 62.1752 31.1361 62.6968C31.0882 62.772 31.0453 62.8533 31.0024 62.9345ZM40.9875 32.9435C41.0904 33.0064 41.2001 33.0735 41.3154 33.1502C41.4295 33.0532 41.5427 32.9667 41.6503 32.8844C41.885 32.7049 42.0933 32.5456 42.2285 32.3413C43.0378 31.0959 43.9925 29.9995 45.2688 29.2331C45.4348 29.1373 45.5801 28.9564 45.6631 28.7754C45.9329 28.2113 45.6527 27.7217 45.2999 27.4343C44.9264 27.1362 44.4283 27.1469 43.9198 27.4875C42.4464 28.4561 41.2946 29.7441 40.3711 31.2449C40.1221 31.6494 40.0494 32.1177 40.3918 32.5009C40.5443 32.6722 40.7476 32.7967 40.9875 32.9435Z" fill="#0044FF"/>
</svg>
