<svg width="88" height="78" viewBox="0 0 88 78" fill="none" xmlns="http://www.w3.org/2000/svg">
<rect opacity="0.5" width="55" height="48" transform="matrix(-1 0 0 1 55 30)" fill="#CCDEFF"/>
<path fill-rule="evenodd" clip-rule="evenodd" d="M86.654 10.8426C84.2945 13.416 64.7526 41.6167 46.9784 41.6551C29.2115 41.6935 7.42046 11.0961 7.42046 11.0961C7.42046 11.0961 6.05214 12.978 6.00036 13.777C5.94858 14.5836 11.5628 24.6396 19.2776 35.1025C28.4865 47.5858 40.4989 60.7296 46.9784 60.6527C57.8737 60.5221 84.7827 23.7482 87.9929 13.5849C88.0446 13.4236 87.808 12.8705 87.4973 12.2098C87.1571 11.48 86.691 10.7965 86.654 10.8426Z" fill="#3369FF"/>
<path d="M47.3256 0.226203C41.2373 0.351199 36.3996 5.22051 36.5204 11.102C36.6411 16.9835 41.6746 21.6499 47.7629 21.5249C53.8512 21.3999 58.6889 16.5308 58.5682 10.6493C58.4474 4.76786 53.414 0.101208 47.3256 0.226203Z" fill="#FFBF00"/>
</svg>
