<svg width="100" height="90" viewBox="0 0 100 90" fill="none" xmlns="http://www.w3.org/2000/svg">
<path fill-rule="evenodd" clip-rule="evenodd" d="M49.746 5.37621C50.2927 5.40594 50.8361 5.27777 51.3077 5.00787C51.7794 4.73798 52.1581 4.33846 52.3961 3.85974C52.6342 3.38103 52.7208 2.84458 52.645 2.31812C52.5693 1.79165 52.3347 1.29877 51.9707 0.901685C51.6067 0.5046 51.1297 0.221115 50.6 0.0870125C50.0702 -0.0470897 49.5114 -0.0257971 48.9941 0.148202C48.4768 0.322202 48.0241 0.641109 47.6933 1.06467C47.3625 1.48822 47.1684 1.99745 47.1354 2.52805C47.113 2.88176 47.1629 3.23626 47.2822 3.57116C47.4015 3.90606 47.5879 4.21474 47.8305 4.47945C48.0731 4.74416 48.3673 4.95967 48.696 5.11357C49.0248 5.26747 49.3816 5.35673 49.746 5.37621ZM73.8375 6.70879C73.4073 6.71266 72.9856 6.59265 72.6257 6.36391C72.3863 6.21177 72.1801 6.01528 72.019 5.78568C71.8579 5.55609 71.745 5.2979 71.6868 5.02589C71.6286 4.75389 71.6262 4.47341 71.6798 4.2005C71.7334 3.9276 71.8418 3.66763 71.999 3.43549C72.2353 3.08645 72.5729 2.81326 72.969 2.65042C73.3652 2.48759 73.8021 2.44242 74.2247 2.52062C74.6473 2.59882 75.0365 2.79689 75.3432 3.08979C75.6499 3.38269 75.8603 3.75729 75.9478 4.16625C76.0353 4.57521 75.996 5.00018 75.8349 5.38747C75.6738 5.77475 75.398 6.10697 75.0425 6.34215C74.687 6.57733 74.2676 6.70492 73.8375 6.70879ZM26.9752 6.58813C27.3582 6.3988 27.6748 6.10362 27.8852 5.73981C28.0956 5.376 28.1904 4.95985 28.1575 4.54383C28.1246 4.12781 27.9657 3.73054 27.7006 3.40213C27.4355 3.07371 27.0763 2.82885 26.6681 2.69842C26.2599 2.56799 25.8211 2.55783 25.4069 2.66922C24.9928 2.78062 24.6219 3.00857 24.341 3.32434C24.0602 3.64012 23.8819 4.02957 23.8286 4.4436C23.7754 4.85763 23.8496 5.27769 24.0419 5.65083C24.1709 5.89959 24.3491 6.1212 24.5665 6.30299C24.7838 6.48478 25.0359 6.62316 25.3083 6.71022C25.5808 6.79728 25.8683 6.83131 26.1543 6.81036C26.4403 6.78941 26.7193 6.71389 26.9752 6.58813ZM29.1048 49.2571C27.9163 47.9638 27.3039 46.2662 27.4015 44.5356C27.474 43.2595 27.9298 42.0319 28.7129 41.0046C29.4959 39.9773 30.5718 39.1953 31.8075 38.7552C33.0432 38.315 34.3847 38.2361 35.6661 38.528C36.9476 38.82 38.1129 39.4701 39.018 40.398C39.9231 41.326 40.5284 42.491 40.759 43.7493C40.9897 45.0076 40.8356 46.3039 40.3159 47.478C39.7962 48.6522 38.9335 49.6528 37.8345 50.3562C36.7356 51.0596 35.4484 51.4349 34.1322 51.4359H33.7428C31.9609 51.3337 30.2932 50.5503 29.1048 49.2571ZM1.07044 43.1455C1.44107 42.9332 1.8682 42.8324 2.29783 42.8558C2.58339 42.871 2.86305 42.9408 3.12078 43.0611C3.37851 43.1815 3.60924 43.3501 3.79975 43.5572C3.99025 43.7643 4.13679 44.0058 4.23095 44.268C4.32512 44.5302 4.36506 44.8079 4.34849 45.0851C4.32408 45.5023 4.17285 45.903 3.91391 46.2367C3.65497 46.5704 3.29995 46.822 2.89373 46.9599C2.48751 47.0977 2.04832 47.1154 1.6317 47.0109C1.21507 46.9064 0.839715 46.6843 0.553074 46.3727C0.266433 46.0611 0.0813803 45.674 0.0213094 45.2602C-0.0387615 44.8465 0.0288467 44.4248 0.215587 44.0484C0.402328 43.672 0.699816 43.3578 1.07044 43.1455ZM35.22 16.8432C34.8926 17.4052 34.4009 17.8603 33.8071 18.1509C33.0103 18.5402 32.087 18.6064 31.2399 18.335C30.3929 18.0636 29.6915 17.4768 29.2898 16.7036C28.9908 16.1268 28.8746 15.477 28.9559 14.8362C29.0372 14.1953 29.3124 13.5923 29.7467 13.1033C30.1809 12.6143 30.7548 12.2613 31.3956 12.0889C32.0365 11.9166 32.7156 11.9326 33.3471 12.1349C33.9786 12.3372 34.5341 12.7168 34.9434 13.2257C35.3528 13.7345 35.5975 14.3498 35.6468 14.9937C35.696 15.6376 35.5475 16.2812 35.22 16.8432ZM10.8197 26.1045C11.2781 26.3962 11.8153 26.5492 12.3633 26.5444C12.9114 26.5395 13.4456 26.377 13.8985 26.0773C14.3513 25.7776 14.7025 25.3542 14.9075 24.8607C15.1126 24.3673 15.1623 23.8258 15.0503 23.3049C14.9384 22.784 14.6699 22.307 14.2787 21.9342C13.8876 21.5615 13.3914 21.3098 12.8529 21.2109C12.3144 21.1121 11.7578 21.1705 11.2534 21.3788C10.7491 21.5871 10.3198 21.936 10.0197 22.3812C9.61747 22.978 9.4758 23.7055 9.62581 24.4037C9.77583 25.1019 10.2053 25.7137 10.8197 26.1045ZM13.0147 42.1358C13.5884 41.8079 14.2493 41.6526 14.9139 41.6894C15.8046 41.7388 16.6386 42.1296 17.2326 42.7758C17.8267 43.4221 18.1321 44.2709 18.0819 45.1357C18.0444 45.781 17.8107 46.4011 17.4102 46.9174C17.0097 47.4338 16.4605 47.8232 15.8321 48.0364C15.2036 48.2496 14.5242 48.2771 13.8797 48.1153C13.2352 47.9536 12.6545 47.6098 12.2112 47.1276C11.768 46.6454 11.4819 46.0463 11.3893 45.4062C11.2967 44.7661 11.4017 44.1138 11.691 43.5316C11.9804 42.9495 12.441 42.4637 13.0147 42.1358ZM11.1982 63.6252C10.7087 63.8645 10.3033 64.2395 10.0333 64.7026C9.76332 65.1657 9.64084 65.6961 9.68137 66.2268C9.7219 66.7575 9.92361 67.2646 10.261 67.684C10.5984 68.1033 11.0563 68.4161 11.5768 68.5828C12.0973 68.7494 12.657 68.7624 13.1851 68.6202C13.7132 68.4779 14.186 68.1868 14.5437 67.7836C14.9014 67.3804 15.1279 66.8833 15.1945 66.3551C15.2612 65.8269 15.165 65.2914 14.9182 64.8162C14.7549 64.5005 14.5291 64.2191 14.2536 63.9882C13.9781 63.7574 13.6584 63.5816 13.3128 63.4709C12.9672 63.3603 12.6025 63.317 12.2397 63.3434C11.8768 63.3699 11.5229 63.4656 11.1982 63.6252ZM26.4696 35.5586C25.6869 35.5651 24.9199 35.3462 24.2654 34.9294C23.8305 34.6529 23.456 34.2959 23.1634 33.8787C22.8707 33.4615 22.6657 32.9924 22.5599 32.4982C22.4542 32.004 22.4498 31.4944 22.5471 30.9986C22.6443 30.5028 22.8413 30.0304 23.1268 29.6086C23.5561 28.9732 24.1698 28.4757 24.8903 28.1789C25.6108 27.8822 26.4058 27.7996 27.1747 27.9415C27.9436 28.0834 28.6518 28.4436 29.2099 28.9763C29.768 29.5091 30.1509 30.1906 30.3101 30.9346C30.4694 31.6786 30.3978 32.4518 30.1045 33.1563C29.8112 33.8609 29.3093 34.4651 28.6623 34.8927C28.0153 35.3203 27.2522 35.552 26.4696 35.5586ZM65.7237 17.8944C66.2802 18.249 66.9325 18.4354 67.5982 18.43C68.2638 18.4246 68.9129 18.2276 69.4632 17.8641C70.0136 17.5005 70.4405 16.9866 70.6901 16.3874C70.9396 15.7882 71.0005 15.1306 70.8651 14.4977C70.7297 13.8649 70.404 13.2853 69.9293 12.8322C69.4546 12.3791 68.8521 12.0729 68.1981 11.9523C67.5442 11.8317 66.868 11.9021 66.2553 12.1546C65.6425 12.4071 65.1206 12.8304 64.7557 13.371C64.5131 13.7296 64.3457 14.1312 64.2631 14.5527C64.1804 14.9742 64.1842 15.4074 64.2741 15.8275C64.364 16.2476 64.5383 16.6463 64.787 17.001C65.0357 17.3556 65.354 17.6592 65.7237 17.8944ZM66.2523 38.2988C65.3695 38.25 64.4854 38.3705 63.6505 38.6535C62.8157 38.9364 62.0464 39.3763 61.3866 39.9479C60.7268 40.5195 60.1894 41.2118 59.8051 41.985C59.4209 42.7583 59.1972 43.5975 59.147 44.4547C59.0967 45.3119 59.2208 46.1703 59.5123 46.9809C59.8037 47.7915 60.2567 48.5385 60.8454 49.1791C61.4341 49.8198 62.147 50.3415 62.9434 50.7146C63.7398 51.0877 64.6041 51.3049 65.487 51.3537H65.8736C67.6266 51.3536 69.3104 50.6898 70.5672 49.5033C71.8241 48.3168 72.5548 46.7012 72.6041 44.9998C72.6534 43.2984 72.0174 41.6454 70.8313 40.3922C69.6452 39.1389 68.0025 38.3842 66.2523 38.2884V38.2988ZM38.5025 37.1012C37.4396 36.4672 36.5801 35.5576 36.021 34.4748V34.467C35.2172 32.9185 35.0799 31.1234 35.6392 29.4766C36.1986 27.8297 37.4088 26.4661 39.0036 25.6857C40.5984 24.9052 42.4472 24.7719 44.1433 25.315C45.8394 25.8581 47.2438 27.0332 48.0476 28.5817C48.5652 29.5784 48.8115 30.6871 48.7628 31.8023C48.7142 32.9175 48.3723 34.0021 47.7697 34.9526C47.1671 35.9032 46.3239 36.6881 45.3204 37.2327C44.3169 37.7772 43.1865 38.0632 42.0369 38.0635C40.7895 38.0685 39.5654 37.7353 38.5025 37.1012ZM88.7995 26.0989C89.2873 25.8578 89.6906 25.4819 89.9585 25.0185C90.2265 24.5552 90.3471 24.0251 90.3052 23.4953C90.2632 22.9655 90.0606 22.4595 89.7229 22.0414C89.3852 21.6232 88.9275 21.3115 88.4075 21.1456C87.8876 20.9798 87.3287 20.9671 86.8013 21.1093C86.274 21.2515 85.8018 21.5421 85.4444 21.9446C85.087 22.347 84.8604 22.8432 84.7931 23.3706C84.7257 23.898 84.8208 24.4329 85.0662 24.9079C85.2303 25.2246 85.4571 25.5067 85.7337 25.7381C86.0103 25.9695 86.3313 26.1455 86.6781 26.2562C87.025 26.3668 87.391 26.4099 87.755 26.3829C88.119 26.3559 88.474 26.2594 88.7995 26.0989ZM70.0701 29.7207C70.4553 29.0593 71.0338 28.5237 71.7325 28.1815C72.6704 27.7237 73.7572 27.646 74.7541 27.9654C75.751 28.2848 76.5767 28.9753 77.0498 29.8852C77.4015 30.564 77.538 31.3287 77.4422 32.0828C77.3464 32.8368 77.0225 33.5464 76.5114 34.1218C76.0003 34.6971 75.3251 35.1124 74.5709 35.3152C73.8168 35.518 73.0177 35.4992 72.2746 35.2611C71.5315 35.023 70.8778 34.5763 70.3961 33.9776C69.9144 33.3788 69.6263 32.6548 69.5683 31.8971C69.5103 31.1394 69.6849 30.382 70.0701 29.7207ZM51.9448 21.7714C51.2713 22.1579 50.4949 22.3419 49.7137 22.3001C49.1942 22.2723 48.6855 22.1454 48.2166 21.9265C47.7477 21.7076 47.3278 21.4011 46.9811 21.0245C46.6343 20.6478 46.3675 20.2085 46.1957 19.7317C46.024 19.2548 45.9509 18.7498 45.9804 18.2454C46.0248 17.487 46.2998 16.7583 46.7705 16.1516C47.2413 15.5448 47.8867 15.0871 48.6252 14.8364C49.3638 14.5857 50.1623 14.5532 50.9199 14.7429C51.6774 14.9327 52.3601 15.3363 52.8815 15.9026C53.403 16.4689 53.7398 17.1727 53.8495 17.9248C53.9592 18.677 53.8368 19.4438 53.4978 20.1285C53.1588 20.8131 52.6184 21.3848 51.9448 21.7714ZM28.2646 61.5414C28.9636 61.1996 29.5426 60.6641 29.9282 60.0028C30.3138 59.3415 30.4888 58.5841 30.4311 57.8262C30.3733 57.0683 30.0854 56.3441 29.6038 55.7451C29.1222 55.1461 28.4684 54.6992 27.7252 54.4609C26.982 54.2227 26.1827 54.2038 25.4284 54.4066C24.6741 54.6094 23.9987 55.0248 23.4876 55.6003C22.9765 56.1758 22.6526 56.8856 22.5569 57.6398C22.4612 58.3941 22.598 59.1589 22.95 59.8377C23.4225 60.7475 24.2477 61.4379 25.2442 61.7574C26.2407 62.0768 27.3271 61.9991 28.2646 61.5414ZM51.1909 32.0202C51.0686 30.5723 51.447 29.1263 52.2663 27.9107C52.8798 27.0029 53.7163 26.2576 54.7004 25.7419C55.6845 25.2261 56.7853 24.9562 57.9036 24.9564C59.3997 24.9585 60.8524 25.445 62.0318 26.3389C63.2112 27.2327 64.05 28.4829 64.4154 29.8916C64.7808 31.3003 64.652 32.7871 64.0493 34.1167C63.4467 35.4463 62.4046 36.5429 61.088 37.2329C59.7714 37.9229 58.2555 38.1669 56.78 37.9263C55.3045 37.6857 53.9538 36.9743 52.9415 35.9046C51.9292 34.8349 51.3132 33.468 51.1909 32.0202ZM63.9772 55.246C63.378 54.0903 62.4392 53.1332 61.2796 52.4957C60.12 51.8583 58.7918 51.569 57.4629 51.6647C56.134 51.7603 54.8642 52.2365 53.8141 53.033C52.764 53.8295 51.9807 54.9105 51.5635 56.1393C51.1463 57.3681 51.1137 58.6894 51.4701 59.9361C51.8264 61.1828 52.5555 62.299 53.5653 63.1432C54.575 63.9875 55.82 64.522 57.1426 64.6792C58.4653 64.8363 59.8063 64.609 60.9959 64.026C61.7888 63.6432 62.4956 63.1115 63.0755 62.4617C63.6553 61.8118 64.0966 61.0568 64.3739 60.2402C64.6512 59.4236 64.7589 58.5617 64.6908 57.7045C64.6227 56.8472 64.3801 56.0116 63.9772 55.246ZM73.5284 54.1651C74.311 54.1585 75.0781 54.3775 75.7326 54.7942C76.1672 55.071 76.5414 55.4281 76.8339 55.8453C77.1263 56.2625 77.3313 56.7315 77.437 57.2256C77.5427 57.7197 77.5472 58.2292 77.4501 58.725C77.353 59.2208 77.1563 59.6931 76.8712 60.1151C76.4419 60.7504 75.8282 61.248 75.1077 61.5447C74.3871 61.8414 73.5922 61.924 72.8233 61.7821C72.0544 61.6402 71.3461 61.2801 70.788 60.7473C70.2299 60.2145 69.8471 59.5331 69.6878 58.789C69.5286 58.045 69.6002 57.2718 69.8935 56.5673C70.1868 55.8628 70.6887 55.2585 71.3357 54.8309C71.9827 54.4033 72.7458 54.1716 73.5284 54.1651ZM88.6343 44.9707C88.6723 44.3254 88.5123 43.6836 88.1746 43.1266C87.8369 42.5696 87.3366 42.1223 86.7371 41.8414C86.1375 41.5605 85.4656 41.4586 84.8064 41.5485C84.1472 41.6384 83.5302 41.9161 83.0336 42.3465C82.5369 42.7769 82.1829 43.3407 82.0163 43.9665C81.8497 44.5923 81.878 45.252 82.0976 45.8622C82.3172 46.4724 82.7182 47.0057 83.25 47.3945C83.7818 47.7834 84.4204 48.0103 85.085 48.0467C85.9757 48.0955 86.8499 47.7989 87.5154 47.2221C88.181 46.6453 88.5834 45.8355 88.6343 44.9707ZM96.7183 42.9357C97.089 42.7234 97.5161 42.6226 97.9457 42.646C98.5219 42.678 99.0615 42.9308 99.446 43.3487C99.8304 43.7667 100.028 44.3157 99.9964 44.8753C99.9719 45.2924 99.8207 45.6932 99.5618 46.0268C99.3028 46.3605 98.9478 46.6122 98.5416 46.75C98.1354 46.8878 97.6962 46.9056 97.2796 46.8011C96.863 46.6966 96.4876 46.4745 96.201 46.1629C95.9143 45.8512 95.7293 45.4641 95.6692 45.0504C95.6091 44.6367 95.6768 44.215 95.8635 43.8385C96.0502 43.4621 96.3477 43.1479 96.7183 42.9357ZM89.1779 63.6146C88.7194 63.3233 88.1823 63.1705 87.6344 63.1756C87.0866 63.1806 86.5525 63.3433 86.0998 63.643C85.6472 63.9426 85.2962 64.3659 85.0912 64.8593C84.8862 65.3526 84.8365 65.8939 84.9483 66.4147C85.0602 66.9355 85.3285 67.4124 85.7194 67.7852C86.1103 68.1579 86.6063 68.4097 87.1446 68.5088C87.6829 68.6079 88.2394 68.5498 88.7437 68.3419C89.248 68.1339 89.6775 67.7855 89.9779 67.3406C90.1774 67.0449 90.3151 66.7141 90.3829 66.3668C90.4507 66.0195 90.4473 65.6627 90.373 65.3166C90.2988 64.9706 90.155 64.6422 89.9499 64.3502C89.7448 64.0581 89.4825 63.8082 89.1779 63.6146ZM26.1609 83.0108C26.5913 83.0075 27.013 83.1282 27.3727 83.3577C27.8544 83.6658 28.1907 84.1468 28.3076 84.6953C28.4246 85.2438 28.3128 85.815 27.9967 86.2835C27.7604 86.6328 27.4227 86.9062 27.0264 87.0691C26.6301 87.2321 26.1929 87.2772 25.7702 87.1989C25.3474 87.1206 24.9581 86.9224 24.6514 86.6292C24.3447 86.3361 24.1344 85.9612 24.0471 85.552C23.9599 85.1428 23.9995 84.7176 24.1611 84.3303C24.3227 83.943 24.5989 83.6109 24.9549 83.376C25.3108 83.1412 25.7305 83.0141 26.1609 83.0108ZM73.0206 83.1367C72.6377 83.326 72.3211 83.6212 72.1107 83.985C71.9003 84.3488 71.8055 84.765 71.8384 85.181C71.8712 85.597 72.0302 85.9943 72.2952 86.3227C72.5603 86.6511 72.9196 86.896 73.3278 87.0264C73.736 87.1568 74.1748 87.167 74.5889 87.0556C75.003 86.9442 75.3739 86.7162 75.6548 86.4005C75.9357 86.0847 76.114 85.6952 76.1672 85.2812C76.2205 84.8672 76.1463 84.4471 75.954 84.074C75.8255 83.8248 75.6475 83.6026 75.4303 83.4205C75.2131 83.2383 74.9609 83.0997 74.6882 83.0126C74.4156 82.9254 74.1278 82.8915 73.8416 82.9128C73.5554 82.9342 73.2764 83.0102 73.0206 83.1367ZM48.8116 57.6935C48.9334 59.1434 48.5536 60.5914 47.7323 61.8082C47.1219 62.719 46.2861 63.4666 45.3013 63.9827C44.3165 64.4988 43.2141 64.7669 42.095 64.7625C40.5967 64.7613 39.1416 64.2749 37.9601 63.3803C36.7786 62.4858 35.9381 61.2341 35.5717 59.8235C35.2053 58.4129 35.3339 56.9239 35.9372 55.5923C36.5405 54.2606 37.584 53.1624 38.9025 52.4714C40.221 51.7804 41.7391 51.5362 43.2167 51.7774C44.6943 52.0185 46.0468 52.7313 47.0602 53.8028C48.0735 54.8744 48.6899 56.2435 48.8116 57.6935ZM34.2738 71.8312C33.7173 71.4766 33.0649 71.2902 32.3993 71.2956C31.7337 71.301 31.0846 71.4979 30.5342 71.8615C29.9839 72.2251 29.5569 72.739 29.3074 73.3382C29.0579 73.9374 28.997 74.595 29.1324 75.2278C29.2678 75.8606 29.5935 76.4402 30.0682 76.8933C30.5429 77.3464 31.1454 77.6526 31.7994 77.7732C32.4533 77.8939 33.1295 77.8234 33.7422 77.5709C34.355 77.3184 34.8768 76.8951 35.2418 76.3546C35.731 75.63 35.9039 74.7465 35.7223 73.8983C35.5408 73.0501 35.0198 72.3065 34.2738 71.8312ZM48.4043 84.7104C48.8763 84.4408 49.4199 84.3131 49.9666 84.3433C50.3307 84.3635 50.6871 84.4532 51.0153 84.6073C51.3436 84.7615 51.6373 84.9771 51.8796 85.2417C52.1219 85.5063 52.308 85.8147 52.4273 86.1493C52.5465 86.4839 52.5966 86.8381 52.5746 87.1915C52.5416 87.7222 52.3473 88.2315 52.0164 88.6551C51.6854 89.0787 51.2326 89.3975 50.7152 89.5714C50.1977 89.7453 49.6388 89.7664 49.109 89.6321C48.5792 89.4978 48.1022 89.214 47.7384 88.8167C47.3746 88.4193 47.1401 87.9262 47.0647 87.3996C46.9893 86.873 47.0763 86.3365 47.3148 85.8579C47.5532 85.3792 47.9323 84.9799 48.4043 84.7104ZM49.9959 67.42C49.2148 67.3783 48.4385 67.5622 47.7651 67.9487C47.0916 68.3351 46.5512 68.9067 46.2122 69.5912C45.8731 70.2757 45.7506 71.0424 45.8601 71.7944C45.9696 72.5465 46.3062 73.2502 46.8274 73.8166C47.3486 74.383 48.0309 74.7868 48.7883 74.9768C49.5457 75.1668 50.3441 75.1347 51.0827 74.8844C51.8212 74.634 52.4668 74.1768 52.9379 73.5704C53.4089 72.964 53.6843 72.2356 53.7292 71.4773C53.7588 70.9728 53.6856 70.4676 53.5139 69.9906C53.3423 69.5136 53.0754 69.0741 52.7287 68.6973C52.382 68.3205 51.9622 68.0137 51.4932 67.7946C51.0243 67.5754 50.5155 67.4481 49.9959 67.42ZM64.7801 72.8779C65.1058 72.3151 65.5959 71.8587 66.1885 71.5661C66.5838 71.3709 67.0149 71.2535 67.4571 71.2207C67.8993 71.1878 68.3438 71.2402 68.765 71.3747C69.1863 71.5092 69.5761 71.7232 69.9119 72.0044C70.2477 72.2857 70.5229 72.6286 70.7218 73.0135C71.0199 73.5905 71.1354 74.2402 71.0535 74.8809C70.9717 75.5215 70.6964 76.1242 70.2621 76.613C69.8279 77.1018 69.2543 77.4548 68.6137 77.6274C67.9731 77.8 67.2941 77.7845 66.6626 77.5829C66.031 77.3813 65.4751 77.0025 65.065 76.4944C64.6549 75.9864 64.409 75.3717 64.3583 74.7281C64.3076 74.0844 64.4543 73.4406 64.7801 72.8779Z" fill="#3369FF"/>
</svg>
