<svg width="44" height="44" viewBox="0 0 44 44" fill="none" xmlns="http://www.w3.org/2000/svg">
<path fill-rule="evenodd" clip-rule="evenodd" d="M16.0707 10.3798C16.0132 7.58137 18.3151 5.2645 21.212 5.20502C24.1088 5.14555 26.5038 7.36599 26.5613 10.1645C26.6187 12.9629 24.3169 15.2797 21.42 15.3392C18.5231 15.3986 16.1282 13.1783 16.0707 10.3798ZM9.47072 22.1132C9.41327 19.3148 11.7151 16.9979 14.612 16.9384C17.5089 16.8789 19.9038 19.0994 19.9613 21.8979C20.0187 24.6963 17.7169 27.0131 14.82 27.0726C11.9231 27.132 9.52817 24.9117 9.47072 22.1132ZM28.5453 16.9384C25.6484 16.9979 23.3466 19.3148 23.404 22.1132C23.4615 24.9117 25.8564 27.132 28.7533 27.0726C31.6502 27.0131 33.952 24.6963 33.8946 21.8979C33.8371 19.0994 31.4422 16.8789 28.5453 16.9384ZM4.4 17.1635C4.4 15.9484 3.41503 14.9635 2.2 14.9635C0.984974 14.9635 0 15.9484 0 17.1635C0 29.3137 9.84974 39.1635 22 39.1635C34.1503 39.1635 44 29.3137 44 17.1635C44 15.9484 43.015 14.9635 41.8 14.9635C40.585 14.9635 39.6 15.9484 39.6 17.1635C39.6 26.8837 31.7202 34.7635 22 34.7635C12.2798 34.7635 4.4 26.8837 4.4 17.1635Z" fill="#0044FF"/>
</svg>
