<svg width="44" height="44" viewBox="0 0 44 44" fill="none" xmlns="http://www.w3.org/2000/svg">
<path fill-rule="evenodd" clip-rule="evenodd" d="M21.2764 1.05845C9.52192 1.29977 0.182035 10.7007 0.41516 22.0559C0.648284 33.411 10.3661 42.4203 22.1206 42.1789C33.8751 41.9376 43.215 32.5371 42.9819 21.1819C42.7487 9.82683 33.0309 0.817124 21.2764 1.05845ZM21.3736 5.7942C12.3269 5.97993 5.13849 13.2153 5.31791 21.9547C5.49734 30.6941 12.9766 37.628 22.0234 37.4423C31.0701 37.2566 38.2585 30.0215 38.0791 21.2821C37.8997 12.5427 30.4204 5.60846 21.3736 5.7942ZM14.6349 21.7638C14.5575 17.9952 17.6573 14.8752 21.5584 14.7951C25.4595 14.715 28.6848 17.7052 28.7621 21.4738C28.8395 25.2424 25.7397 28.3623 21.8386 28.4424C17.9375 28.5225 14.7123 25.5324 14.6349 21.7638Z" fill="#0044FF"/>
</svg>
