<svg width="48" height="36" viewBox="0 0 48 36" fill="none" xmlns="http://www.w3.org/2000/svg">
<path fill-rule="evenodd" clip-rule="evenodd" d="M0.787891 29.1574C2.16909 27.6509 13.6082 11.1433 24.0127 11.1208C34.4128 11.0983 47.1685 29.0089 47.1685 29.0089C47.1685 29.0089 47.9695 27.9073 47.9998 27.4397C48.0301 26.9675 44.7437 21.0811 40.2278 14.9564C34.8372 7.64914 27.8055 -0.0447718 24.0127 0.00019617C17.6349 0.0766417 1.8833 21.6028 0.00417643 27.5521C-0.026132 27.6465 0.112387 27.9703 0.294238 28.357C0.493407 28.7842 0.766243 29.1843 0.787891 29.1574Z" fill="white"/>
<path d="M23.8096 35.3715C27.3735 35.2984 30.2053 32.448 30.1346 29.0052C30.0639 25.5624 27.1175 22.8308 23.5536 22.904C19.9897 22.9772 17.1579 25.8274 17.2286 29.2702C17.2992 32.713 20.2457 35.4447 23.8096 35.3715Z" fill="white"/>
</svg>
